<svg width="32" height="32" viewBox="0 0 32 32" fill="none" xmlns="http://www.w3.org/2000/svg">
<path d="M11.6325 13.3286H8.20215V23.6472H11.6325V13.3286Z" fill="white"/>
<path d="M9.94049 8.35303C8.7668 8.35303 8 9.12468 8 10.136C8 11.1261 8.74349 11.919 9.89504 11.919H9.91719C11.1133 11.919 11.8579 11.1261 11.8579 10.136C11.8357 9.12468 11.1134 8.35303 9.94049 8.35303Z" fill="white"/>
<path d="M20.0509 13.0859C18.2313 13.0859 17.4162 14.0867 16.9598 14.7895V13.3285H13.5303C13.5757 14.2964 13.5303 23.6471 13.5303 23.6471H16.9598V17.8845C16.9598 17.5761 16.9819 17.2677 17.0729 17.0472C17.3205 16.4313 17.8851 15.7931 18.8326 15.7931C20.0731 15.7931 20.57 16.7397 20.57 18.1263V23.6471H23.9998V17.7298C23.9998 14.5604 22.3075 13.0859 20.0509 13.0859Z" fill="white"/>
</svg>
