<svg width="48" height="48" viewBox="0 0 48 48" fill="none" xmlns="http://www.w3.org/2000/svg">
<path d="M18.375 8.4375C19.1517 8.4375 19.7812 7.8079 19.7812 7.03125C19.7812 6.2546 19.1517 5.625 18.375 5.625C17.5983 5.625 16.9688 6.2546 16.9688 7.03125C16.9688 7.8079 17.5983 8.4375 18.375 8.4375Z" fill="black"/>
<path d="M29.625 8.4375C30.4017 8.4375 31.0312 7.8079 31.0312 7.03125C31.0312 6.2546 30.4017 5.625 29.625 5.625C28.8483 5.625 28.2188 6.2546 28.2188 7.03125C28.2188 7.8079 28.8483 8.4375 29.625 8.4375Z" fill="black"/>
<path d="M24 8.4375C24.7767 8.4375 25.4062 7.8079 25.4062 7.03125C25.4062 6.2546 24.7767 5.625 24 5.625C23.2233 5.625 22.5938 6.2546 22.5938 7.03125C22.5938 7.8079 23.2233 8.4375 24 8.4375Z" fill="black"/>
<path d="M18.375 14.0625C19.1517 14.0625 19.7812 13.4329 19.7812 12.6562C19.7812 11.8796 19.1517 11.25 18.375 11.25C17.5983 11.25 16.9688 11.8796 16.9688 12.6562C16.9688 13.4329 17.5983 14.0625 18.375 14.0625Z" fill="black"/>
<path d="M29.625 14.0625C30.4017 14.0625 31.0312 13.4329 31.0312 12.6562C31.0312 11.8796 30.4017 11.25 29.625 11.25C28.8483 11.25 28.2188 11.8796 28.2188 12.6562C28.2188 13.4329 28.8483 14.0625 29.625 14.0625Z" fill="black"/>
<path d="M24 14.0625C24.7767 14.0625 25.4062 13.4329 25.4062 12.6562C25.4062 11.8796 24.7767 11.25 24 11.25C23.2233 11.25 22.5938 11.8796 22.5938 12.6562C22.5938 13.4329 23.2233 14.0625 24 14.0625Z" fill="black"/>
<path d="M18.375 19.6875C19.1517 19.6875 19.7812 19.0579 19.7812 18.2812C19.7812 17.5046 19.1517 16.875 18.375 16.875C17.5983 16.875 16.9688 17.5046 16.9688 18.2812C16.9688 19.0579 17.5983 19.6875 18.375 19.6875Z" fill="black"/>
<path d="M29.625 19.6875C30.4017 19.6875 31.0312 19.0579 31.0312 18.2812C31.0312 17.5046 30.4017 16.875 29.625 16.875C28.8483 16.875 28.2188 17.5046 28.2188 18.2812C28.2188 19.0579 28.8483 19.6875 29.625 19.6875Z" fill="black"/>
<path d="M24 19.6875C24.7767 19.6875 25.4062 19.0579 25.4062 18.2812C25.4062 17.5046 24.7767 16.875 24 16.875C23.2233 16.875 22.5938 17.5046 22.5938 18.2812C22.5938 19.0579 23.2233 19.6875 24 19.6875Z" fill="black"/>
<path d="M18.375 30.9375C19.1517 30.9375 19.7812 30.3079 19.7812 29.5312C19.7812 28.7546 19.1517 28.125 18.375 28.125C17.5983 28.125 16.9688 28.7546 16.9688 29.5312C16.9688 30.3079 17.5983 30.9375 18.375 30.9375Z" fill="black"/>
<path d="M29.625 30.9375C30.4017 30.9375 31.0312 30.3079 31.0312 29.5312C31.0312 28.7546 30.4017 28.125 29.625 28.125C28.8483 28.125 28.2188 28.7546 28.2188 29.5312C28.2188 30.3079 28.8483 30.9375 29.625 30.9375Z" fill="black"/>
<path d="M24 30.9375C24.7767 30.9375 25.4062 30.3079 25.4062 29.5312C25.4062 28.7546 24.7767 28.125 24 28.125C23.2233 28.125 22.5938 28.7546 22.5938 29.5312C22.5938 30.3079 23.2233 30.9375 24 30.9375Z" fill="black"/>
<path d="M18.375 36.5625C19.1517 36.5625 19.7812 35.9329 19.7812 35.1562C19.7812 34.3796 19.1517 33.75 18.375 33.75C17.5983 33.75 16.9688 34.3796 16.9688 35.1562C16.9688 35.9329 17.5983 36.5625 18.375 36.5625Z" fill="black"/>
<path d="M29.625 36.5625C30.4017 36.5625 31.0312 35.9329 31.0312 35.1562C31.0312 34.3796 30.4017 33.75 29.625 33.75C28.8483 33.75 28.2188 34.3796 28.2188 35.1562C28.2188 35.9329 28.8483 36.5625 29.625 36.5625Z" fill="black"/>
<path d="M24 36.5625C24.7767 36.5625 25.4062 35.9329 25.4062 35.1562C25.4062 34.3796 24.7767 33.75 24 33.75C23.2233 33.75 22.5938 34.3796 22.5938 35.1562C22.5938 35.9329 23.2233 36.5625 24 36.5625Z" fill="black"/>
<path d="M18.375 25.3125C19.1517 25.3125 19.7812 24.6829 19.7812 23.9062C19.7812 23.1296 19.1517 22.5 18.375 22.5C17.5983 22.5 16.9688 23.1296 16.9688 23.9062C16.9688 24.6829 17.5983 25.3125 18.375 25.3125Z" fill="black"/>
<path d="M29.625 25.3125C30.4017 25.3125 31.0312 24.6829 31.0312 23.9062C31.0312 23.1296 30.4017 22.5 29.625 22.5C28.8483 22.5 28.2188 23.1296 28.2188 23.9062C28.2188 24.6829 28.8483 25.3125 29.625 25.3125Z" fill="black"/>
<path d="M24 25.3125C24.7767 25.3125 25.4062 24.6829 25.4062 23.9062C25.4062 23.1296 24.7767 22.5 24 22.5C23.2233 22.5 22.5938 23.1296 22.5938 23.9062C22.5938 24.6829 23.2233 25.3125 24 25.3125Z" fill="black"/>
<path d="M40.875 19.6875C41.6517 19.6875 42.2812 19.0579 42.2812 18.2812C42.2812 17.5046 41.6517 16.875 40.875 16.875C40.0983 16.875 39.4688 17.5046 39.4688 18.2812C39.4688 19.0579 40.0983 19.6875 40.875 19.6875Z" fill="black"/>
<path d="M40.875 25.3125C41.6517 25.3125 42.2812 24.6829 42.2812 23.9062C42.2812 23.1296 41.6517 22.5 40.875 22.5C40.0983 22.5 39.4688 23.1296 39.4688 23.9062C39.4688 24.6829 40.0983 25.3125 40.875 25.3125Z" fill="black"/>
<path d="M40.875 30.9375C41.6517 30.9375 42.2812 30.3079 42.2812 29.5312C42.2812 28.7546 41.6517 28.125 40.875 28.125C40.0983 28.125 39.4688 28.7546 39.4688 29.5312C39.4688 30.3079 40.0983 30.9375 40.875 30.9375Z" fill="black"/>
<path d="M40.875 36.5625C41.6517 36.5625 42.2812 35.9329 42.2812 35.1562C42.2812 34.3796 41.6517 33.75 40.875 33.75C40.0983 33.75 39.4688 34.3796 39.4688 35.1562C39.4688 35.9329 40.0983 36.5625 40.875 36.5625Z" fill="black"/>
<path d="M46.5 11.25H36.6562V1.40625C36.6562 0.629625 36.0266 0 35.25 0H12.75C11.9734 0 11.3438 0.629625 11.3438 1.40625V11.25H1.5C0.723375 11.25 0.09375 11.8796 0.09375 12.6562V46.5938C0.09375 47.3704 0.723375 48 1.5 48H46.5C47.2766 48 47.9062 47.3704 47.9062 46.5938V12.6562C47.9062 11.8796 47.2766 11.25 46.5 11.25ZM11.3438 45.1875H8.53125V40.7812C8.53125 40.0046 7.90163 39.375 7.125 39.375C6.34837 39.375 5.71875 40.0046 5.71875 40.7812V45.1875H2.90625V14.0625H11.3438V45.1875ZM22.5938 45.1875H19.7812V42.1875H22.5938V45.1875ZM28.2188 45.1875H25.4062V42.1875H28.2188V45.1875ZM33.8438 45.1875H31.0312V40.7812C31.0312 40.0046 30.4016 39.375 29.625 39.375H18.375C17.5984 39.375 16.9688 40.0046 16.9688 40.7812V45.1875H14.1562V2.8125H33.8438V45.1875ZM45.0938 45.1875H42.2812V40.7812C42.2812 40.0046 41.6516 39.375 40.875 39.375C40.0984 39.375 39.4688 40.0046 39.4688 40.7812V45.1875H36.6562V14.0625H45.0938V45.1875Z" fill="black"/>
<path d="M7.125 19.6875C7.90165 19.6875 8.53125 19.0579 8.53125 18.2812C8.53125 17.5046 7.90165 16.875 7.125 16.875C6.34835 16.875 5.71875 17.5046 5.71875 18.2812C5.71875 19.0579 6.34835 19.6875 7.125 19.6875Z" fill="black"/>
<path d="M7.125 25.3125C7.90165 25.3125 8.53125 24.6829 8.53125 23.9062C8.53125 23.1296 7.90165 22.5 7.125 22.5C6.34835 22.5 5.71875 23.1296 5.71875 23.9062C5.71875 24.6829 6.34835 25.3125 7.125 25.3125Z" fill="black"/>
<path d="M7.125 30.9375C7.90165 30.9375 8.53125 30.3079 8.53125 29.5312C8.53125 28.7546 7.90165 28.125 7.125 28.125C6.34835 28.125 5.71875 28.7546 5.71875 29.5312C5.71875 30.3079 6.34835 30.9375 7.125 30.9375Z" fill="black"/>
<path d="M7.125 36.5625C7.90165 36.5625 8.53125 35.9329 8.53125 35.1562C8.53125 34.3796 7.90165 33.75 7.125 33.75C6.34835 33.75 5.71875 34.3796 5.71875 35.1562C5.71875 35.9329 6.34835 36.5625 7.125 36.5625Z" fill="black"/>
</svg>
