<svg width="48" height="48" viewBox="0 0 48 48" fill="none" xmlns="http://www.w3.org/2000/svg">
<g clip-path="url(#clip0_443_7112)">
<path d="M44.2361 22.6805V26.5228C44.2361 27.5581 45.0751 28.3975 46.1104 28.3975C47.1456 28.3975 47.9846 27.5581 47.9846 26.5228V15.0927C47.9846 10.9585 44.6213 7.59485 40.4872 7.59485H32.4203V5.15112C32.4203 2.31079 30.1095 0 27.2692 0H20.7155C17.8751 0 15.5643 2.31079 15.5643 5.15112V7.59485H7.49744C3.36328 7.59485 0 10.9581 0 15.0923V36.9291C0 41.0632 3.36328 44.4269 7.49744 44.4269H23.3364C24.3717 44.4269 25.2107 43.5875 25.2107 42.5522C25.2107 41.5173 24.3717 40.678 23.3364 40.678H7.49744C5.43054 40.678 3.7489 38.9963 3.7489 36.9291V22.6805H22.2118V25.4956C22.2118 26.5305 23.0508 27.3699 24.0861 27.3699C25.1213 27.3699 25.9603 26.5305 25.9603 25.4956V22.6805H44.2361ZM19.3132 5.15112C19.3132 4.37805 19.9424 3.7489 20.7155 3.7489H27.2692C28.0422 3.7489 28.6714 4.37769 28.6714 5.15112V7.59485H19.3132V5.15112ZM3.7489 15.0927C3.7489 13.0254 5.43054 11.3438 7.49744 11.3438H40.4872C42.5541 11.3438 44.2361 13.0254 44.2361 15.0927V18.9316H3.7489V15.0927ZM47.451 44.785L43.1331 40.467C43.9501 39.1685 44.4232 37.6329 44.4232 35.9886C44.4232 31.3378 40.6395 27.5537 35.9886 27.5537C31.3378 27.5537 27.5537 31.3378 27.5537 35.9886C27.5537 40.6395 31.3378 44.4236 35.9886 44.4236C37.6406 44.4236 39.1831 43.9457 40.4857 43.1213L44.8 47.4357C45.1663 47.8019 45.646 47.985 46.1257 47.985C46.6055 47.985 47.0848 47.8019 47.451 47.4357C48.1831 46.7036 48.1831 45.5171 47.451 44.785ZM31.3026 35.9886C31.3026 33.4047 33.4047 31.3026 35.9886 31.3026C38.5723 31.3026 40.6747 33.4047 40.6747 35.9886C40.6747 38.5726 38.5723 40.6747 35.9886 40.6747C33.4047 40.6747 31.3026 38.5723 31.3026 35.9886Z" fill="black"/>
</g>
<defs>
<clipPath id="clip0_443_7112">
<rect width="48" height="48" fill="white"/>
</clipPath>
</defs>
</svg>
