<svg width="48" height="48" viewBox="0 0 48 48" fill="none" xmlns="http://www.w3.org/2000/svg">
<g clip-path="url(#clip0_1227_1115)">
<path d="M46.5938 27.75H30.9375V19.3125C30.9375 16.211 29.2617 13.3299 26.2189 11.1998C23.3287 9.17672 19.5109 8.0625 15.4688 8.0625C11.4266 8.0625 7.60884 9.17672 4.71863 11.1998C1.67578 13.3299 0 16.211 0 19.3125V30.0938C0 32.8009 1.36997 35.3193 3.85753 37.185C6.22425 38.96 9.34903 39.9375 12.6562 39.9375H46.5938C47.3704 39.9375 48 39.3079 48 38.5312V29.1562C48 28.3796 47.3704 27.75 46.5938 27.75ZM28.125 27.75H25.7334C25.8978 27.6443 26.06 27.5363 26.2189 27.4252C26.9307 26.9269 27.5667 26.387 28.125 25.8132V27.75ZM6.3315 13.5039C8.75334 11.8087 11.9984 10.875 15.4688 10.875C18.9391 10.875 22.1842 11.8087 24.606 13.5039C26.8753 15.0924 28.125 17.1553 28.125 19.3125C28.125 21.4697 26.8753 23.5326 24.606 25.1211C22.1842 26.8163 18.9391 27.75 15.4688 27.75C11.9984 27.75 8.75334 26.8163 6.3315 25.1211C4.06228 23.5326 2.8125 21.4697 2.8125 19.3125C2.8125 17.1553 4.06228 15.0924 6.3315 13.5039V13.5039ZM2.8125 30.0938V25.8132C3.37078 26.387 4.00678 26.9268 4.71863 27.4252C7.60884 29.4483 11.4266 30.5625 15.4688 30.5625H39.375V37.125H36.5625V34.7812C36.5625 34.0046 35.9329 33.375 35.1562 33.375C34.3796 33.375 33.75 34.0046 33.75 34.7812V37.125H30.9375V35.7188C30.9375 34.9421 30.3079 34.3125 29.5312 34.3125C28.7546 34.3125 28.125 34.9421 28.125 35.7188V37.125H25.3125V34.7812C25.3125 34.0046 24.6829 33.375 23.9062 33.375C23.1296 33.375 22.5 34.0046 22.5 34.7812V37.125H19.6875V35.7188C19.6875 34.9421 19.0579 34.3125 18.2812 34.3125C17.5046 34.3125 16.875 34.9421 16.875 35.7188V37.125H14.0625V34.7812C14.0625 34.0046 13.4329 33.375 12.6562 33.375C11.8796 33.375 11.25 34.0046 11.25 34.7812V37.0522C10.2681 36.9517 9.32269 36.7458 8.4375 36.4422V34.7812C8.4375 34.0046 7.80788 33.375 7.03125 33.375C6.25462 33.375 5.625 34.0046 5.625 34.7812V34.992C5.59866 34.9727 5.57119 34.9545 5.54503 34.9349C3.783 33.6133 2.8125 31.8941 2.8125 30.0938ZM45.1875 37.125H42.1875V30.5625H45.1875V37.125Z" fill="black"/>
<path d="M15.4688 24C20.0117 24 23.4375 21.9848 23.4375 19.3125C23.4375 16.6402 20.0117 14.625 15.4688 14.625C10.9258 14.625 7.5 16.6402 7.5 19.3125C7.5 21.9848 10.9258 24 15.4688 24ZM15.4688 17.4375C18.8182 17.4375 20.625 18.7684 20.625 19.3125C20.625 19.8566 18.8182 21.1875 15.4688 21.1875C12.1193 21.1875 10.3125 19.8566 10.3125 19.3125C10.3125 18.7684 12.1193 17.4375 15.4688 17.4375Z" fill="black"/>
</g>
<defs>
<clipPath id="clip0_1227_1115">
<rect width="48" height="48" fill="white"/>
</clipPath>
</defs>
</svg>
