<svg xmlns="http://www.w3.org/2000/svg" enable-background="new 0 0 5000 4000" viewBox="0 0 5000 4000" id="headhunter-responsibility"><path fill="#ebf3fc" d="M4327.999,1140.05C3809.234,282.128,2723.241,389.589,2247.46,910.532
			c-557.838,610.791-1648.088,339.525-1878.645,1155.43c-2.315,8.193-4.543,16.35-6.685,24.47
			c-171.822,651.469,399.139,1257.656,1060.217,1127.614l114.99-22.62c141.324-24.227,384.861-54.136,567.858-14.049
			c273.701,59.958,571.135,101.015,935.787,105.038C4145.47,3298.601,5017.512,2280.351,4327.999,1140.05z"></path><path fill="#d1e6fc" d="M763.125,3011.663c-0.73,0-1.467-0.063-2.202-0.195l-259.104-46.331
					c-0.132-0.023-0.265-0.05-0.396-0.077c-10.263-2.18-18.651-9.323-22.437-19.108s-2.39-20.713,3.734-29.232l210.831-293.292
					c6.125-8.521,16.036-13.329,26.521-12.854c10.481,0.471,19.924,6.146,25.259,15.18c0.068,0.116,0.135,0.232,0.199,0.351
					l126.472,230.838c2.312,4.221,1.997,9.394-0.812,13.302l-97.918,136.216C770.899,3009.761,767.103,3011.663,763.125,3011.663z
					 M506.47,2940.572l251.101,44.899l88.724-123.426l-122.566-223.708c-1.427-2.301-3.598-2.737-4.778-2.79
					c-1.201-0.052-3.463,0.196-5.099,2.472l-210.831,293.291c-1.636,2.276-1.152,4.498-0.718,5.62
					C502.729,2938.033,503.833,2939.952,506.47,2940.572z"></path><path fill="#d1e6fc" d="M920.359,3113.337c-10.267,0-20.251-3.196-28.752-9.308l-134.411-96.621
					c-2.692-1.935-4.505-4.859-5.04-8.132c-0.535-3.271,0.251-6.622,2.186-9.313l96.549-134.312
					c4.03-5.606,11.84-6.885,17.446-2.854l134.412,96.621c22.135,15.912,27.199,46.865,11.287,69.001l-53.426,74.322
					c-7.708,10.723-19.131,17.803-32.164,19.935C925.745,3113.118,923.042,3113.337,920.359,3113.337z M781.938,2994.405
					l124.262,89.325c0,0,0,0,0,0c10.942,7.867,26.244,5.363,34.11-5.58l53.426-74.322c7.866-10.942,5.363-26.244-5.58-34.11
					l-124.262-89.324L781.938,2994.405z"></path><path fill="#d1e6fc" d="M692.258 3243.79c-4.504 0-9.003-1.369-12.794-4.094l-48.015-34.516c-5.773-4.149-9.183-10.871-9.121-17.98s3.587-13.771 9.431-17.819L819.791 3039.1c4.348-3.011 10.121-2.963 14.415.125l68.559 49.283c3.336 2.397 5.281 6.282 5.202 10.39-.079 4.108-2.171 7.915-5.597 10.183l-198.023 131.095C700.699 3242.589 696.477 3243.79 692.258 3243.79zM649.595 3187.437l42.729 30.715 181.14-119.918-46.687-33.561L649.595 3187.437zM4405.33 1661.669c-6.529-3.322-11.886-7.975-16.059-13.963-4.182-5.987-6.342-12.503-6.489-19.555-.151-7.047 2.13-13.732 6.843-20.056l9.171-12.147-.679 11.612c-8.404 9.174-16.814 15.297-25.223 18.363-8.415 3.067-16.437 4.03-24.072 2.882-7.638-1.143-14.719-3.38-21.248-6.703-7.322-3.726-13.389-9.3-18.199-16.733-4.813-7.429-7.485-15.888-8.012-25.374-.533-9.483 1.775-19.273 6.91-29.363 4.731-9.297 11.466-18.013 20.215-26.142 8.74-8.127 18.544-14.908 29.407-20.343 10.856-5.434 21.952-8.631 33.278-9.594 11.324-.962 21.93 1.072 31.825 6.108 8.505 4.328 14.517 11.123 18.025 20.381 3.509 9.259 2.938 19.43-1.706 30.518l-17.829 15.213 26.771-37.19c1.804-2.568 4.646-4.484 8.529-5.748 3.876-1.261 8.492-.535 13.834 2.183 6.923 3.523 10.742 7.399 11.46 11.623.71 4.226-.836 8.857-4.641 13.891l-49.929 68.747c-4.416 6.224-6.089 11.474-5.026 15.75 1.06 4.275 3.471 7.37 7.232 9.284 5.936 3.021 12.679 3.592 20.24 1.707 7.556-1.882 15.179-5.599 22.865-11.157 7.683-5.554 15.026-12.4 22.037-20.544 7.003-8.142 12.927-16.96 17.759-26.457 7.047-13.847 9.974-27.676 8.783-41.488-1.194-13.807-6.266-26.727-15.214-38.753-8.952-12.028-21.54-22.169-37.761-30.424-18.993-9.665-38.087-15.832-57.278-18.5-19.192-2.667-37.745-1.705-55.644 2.882-17.906 4.59-34.298 12.939-49.173 25.044-14.883 12.106-27.404 28.152-37.572 48.134-5.437 10.684-9.115 21.953-11.035 33.802-1.922 11.854-1.536 23.691 1.164 35.526 2.693 11.833 8.349 22.989 16.963 33.479 8.611 10.483 20.734 19.704 36.365 27.659 10.879 5.536 20.558 9.527 29.029 11.97 8.472 2.442 16.452 3.888 23.946 4.339 7.489.448 15.063.502 22.71.161 4.369-.27 7.515.893 9.432 3.492 1.915 2.591 2.665 5.775 2.24 9.546-.646 7.144-6.828 10.723-18.541 10.74-10.724.02-22.683-.707-35.876-2.189-13.197-1.485-28.102-6.454-44.721-14.911-19.985-10.17-35.413-21.944-46.288-35.324-10.879-13.382-18.051-27.558-21.517-42.521-3.468-14.97-3.983-29.985-1.543-45.06 2.438-15.071 7.081-29.334 13.929-42.792 11.78-23.149 26.456-41.834 44.031-56.056 17.571-14.224 36.956-24.162 58.143-29.82 21.188-5.658 43.112-7.018 65.778-4.077 22.662 2.939 45.077 10.048 67.237 21.325 22.556 11.478 39.408 25.35 50.562 41.61 11.152 16.265 17.033 33.456 17.654 51.578.615 18.125-3.404 35.694-12.062 52.708-6.142 12.07-14.04 23.184-23.691 33.34-9.654 10.161-20.435 18.371-32.342 24.641-11.912 6.269-24.27 9.881-37.084 10.833C4430.434 1670.708 4417.795 1668.012 4405.33 1661.669zM4350.366 1600.073c5.144 2.617 10.469 3.774 15.985 3.464 5.51-.308 10.779-1.486 15.811-3.537 5.023-2.05 9.658-4.549 13.902-7.497 4.237-2.946 7.51-5.706 9.812-8.271 10.396-10.15 16.76-18.869 19.099-26.149 2.332-7.279 2.003-13.366-.988-18.25-2.994-4.887-7.359-8.79-13.096-11.708-5.937-3.021-12.287-3.883-19.044-2.592-6.765 1.292-13.385 4.024-19.865 8.199-6.484 4.173-12.351 9.221-17.605 15.14-5.254 5.92-9.443 11.95-12.562 18.08-3.828 7.521-4.894 14.137-3.193 19.858C4340.316 1592.53 4344.231 1596.951 4350.366 1600.073zM544.843 1965.017c-69.731 0-135.237-43.304-160.018-112.636-31.506-88.146 14.573-185.489 102.719-216.995 88.145-31.506 185.49 14.574 216.996 102.719 31.506 88.145-14.574 185.489-102.72 216.996C583.007 1961.826 563.766 1965.017 544.843 1965.017zM544.545 1650.472c-16.14 0-32.539 2.72-48.587 8.456-75.165 26.867-114.458 109.875-87.592 185.04 21.13 59.117 76.996 96.045 136.454 96.048 16.14.001 32.539-2.719 48.586-8.455 75.165-26.867 114.459-109.875 87.593-185.041C659.869 1687.403 604.003 1650.472 544.545 1650.472z"></path><path fill="#d1e6fc" d="M839.808 2014.653c-4.071 0-8.184-1.179-11.804-3.639l-156.778-106.53c-9.609-6.53-12.106-19.613-5.577-29.223s19.613-12.106 29.223-5.577l156.778 106.53c9.609 6.53 12.106 19.613 5.577 29.223C853.157 2011.427 846.541 2014.653 839.808 2014.653zM4293.769 2763.807c-1.725 0-3.462-.121-5.2-.367-9.69-1.368-18.269-6.429-24.153-14.248l-142.924-189.923c-5.885-7.821-8.372-17.465-7.004-27.155 1.369-9.691 6.43-18.27 14.25-24.154l350.94-264.096c16.146-12.149 39.161-8.898 51.31 7.246l142.924 189.921c12.147 16.144 8.897 39.16-7.245 51.309v.001l-350.942 264.097C4309.307 2761.266 4301.661 2763.807 4293.769 2763.807zM4501.696 2261.505c-2.438 0-4.894.76-6.986 2.335l-350.94 264.096c-2.485 1.869-4.093 4.595-4.527 7.673-.435 3.079.355 6.143 2.226 8.628l142.923 189.922c1.869 2.484 4.595 4.092 7.674 4.527 3.071.433 6.142-.355 8.626-2.225l350.942-264.098c5.129-3.859 6.161-11.172 2.302-16.301l-142.924-189.921C4508.727 2263.105 4505.231 2261.505 4501.696 2261.505zM4659.149 2482.352h.01H4659.149z"></path><path fill="#d1e6fc" d="M4126.638,2549.41c-6.158,0-11.521-4.551-12.371-10.822c-0.928-6.841,3.866-13.139,10.707-14.066
					l264.114-35.818l107.547-243.87c2.785-6.316,10.162-9.182,16.481-6.394c6.316,2.786,9.179,10.165,6.394,16.481l-110.371,250.272
					c-1.755,3.978-5.449,6.759-9.758,7.343l-271.048,36.759C4127.764,2549.372,4127.196,2549.41,4126.638,2549.41z"></path><g><path fill="#d1e6fc" d="M1610.588,1080.065c-5.128,0-10.244-1.091-15.059-3.265L1195.21,896.102
					c-18.415-8.312-26.634-30.055-18.322-48.47l97.791-216.644c4.026-8.92,11.286-15.739,20.44-19.2
					c9.156-3.461,19.11-3.148,28.03,0.878l400.319,180.698c8.92,4.026,15.739,11.286,19.199,20.44
					c3.46,9.155,3.148,19.109-0.878,28.03L1644,1058.479c-4.027,8.92-11.286,15.739-20.441,19.199
					C1619.345,1079.271,1614.962,1080.064,1610.588,1080.065z M1308.08,634.415c-1.39,0-2.782,0.252-4.121,0.758
					c-2.908,1.099-5.214,3.265-6.494,6.099l-97.791,216.645c-2.641,5.85-0.029,12.758,5.821,15.399l400.319,180.698l0,0
					c2.835,1.279,5.998,1.378,8.905,0.279c2.909-1.099,5.215-3.265,6.494-6.1l97.79-216.644c1.279-2.834,1.378-5.997,0.279-8.905
					c-1.099-2.908-3.265-5.214-6.099-6.494l-400.319-180.698C1311.334,634.762,1309.709,634.415,1308.08,634.415z"></path><path fill="#d1e6fc" d="M1459.337,857.233c-3.943,0-7.682-1.866-10.051-5.071l-162.573-219.973
					c-4.103-5.552-2.929-13.378,2.624-17.482c5.55-4.102,13.378-2.929,17.482,2.624l158.414,214.346l265.54-22.979
					c6.881-0.599,12.936,4.499,13.531,11.376c0.595,6.878-4.498,12.936-11.376,13.531l-272.511,23.583
					C1460.056,857.218,1459.696,857.233,1459.337,857.233z"></path></g><g><path fill="#d1e6fc" d="M2590.658,876.86c-6.777,2.781-13.798,3.806-21.06,3.062c-7.265-0.737-13.613-3.352-19.054-7.839
					c-5.438-4.484-9.018-10.575-10.736-18.271l-3.223-14.875l8.357,8.089c1.47,12.355,0.623,22.724-2.539,31.097
					c-3.164,8.378-7.668,15.085-13.519,20.124c-5.85,5.043-12.165,8.95-18.942,11.731c-7.601,3.119-15.783,4.08-24.556,2.876
					c-8.771-1.199-16.924-4.692-24.457-10.482c-7.536-5.783-13.45-13.919-17.747-24.393c-3.96-9.651-6.172-20.442-6.625-32.375
					c-0.456-11.927,0.8-23.78,3.768-35.559c2.965-11.773,7.78-22.27,14.438-31.48c6.66-9.21,15.12-15.921,25.393-20.136
					c8.829-3.622,17.9-3.744,27.205-0.365c9.306,3.381,16.644,10.449,22.017,21.202l-0.102,23.437l-10.721-44.553
					c-0.771-3.042-0.367-6.445,1.208-10.213c1.573-3.761,5.135-6.786,10.68-9.061c7.188-2.948,12.615-3.314,16.284-1.102
					c3.667,2.219,6.169,6.411,7.501,12.58l19.529,82.691c1.836,7.406,4.723,12.099,8.658,14.083
					c3.931,1.987,7.851,2.178,11.755,0.577c6.161-2.528,10.994-7.266,14.499-14.228c3.502-6.955,5.66-15.156,6.461-24.606
					c0.804-9.447,0.404-19.479-1.193-30.105c-1.602-10.618-4.421-20.861-8.466-30.72c-5.897-14.374-14.468-25.615-25.713-33.723
					c-11.243-8.102-24.344-12.687-39.296-13.751c-14.957-1.062-30.854,1.86-47.692,8.769c-19.717,8.089-36.846,18.538-51.389,31.343
					c-14.542,12.804-25.916,27.493-34.116,44.051c-8.203,16.565-12.568,34.435-13.1,53.605
					c-0.534,19.178,3.459,39.136,11.969,59.878c4.55,11.09,10.69,21.229,18.417,30.415c7.73,9.191,16.953,16.62,27.685,22.295
					c10.726,5.678,22.869,8.67,36.44,8.985c13.563,0.312,28.459-2.858,44.686-9.516c11.293-4.634,20.633-9.366,28.011-14.193
					c7.379-4.826,13.681-9.931,18.911-15.317c5.227-5.383,10.208-11.088,14.938-17.105c2.646-3.488,5.579-5.113,8.8-4.871
					c3.214,0.24,6.116,1.747,8.697,4.53c4.992,5.15,3.672,12.171-3.957,21.061c-6.98,8.139-15.334,16.729-25.064,25.759
					c-9.734,9.034-23.224,17.087-40.476,24.166c-20.747,8.512-39.735,12.523-56.97,12.036c-17.24-0.485-32.662-4.298-46.263-11.433
					c-13.609-7.137-25.324-16.543-35.158-28.228c-9.831-11.68-17.611-24.504-23.343-38.473c-9.859-24.03-14.447-47.342-13.758-69.94
					c0.683-22.598,5.796-43.771,15.331-63.521c9.534-19.749,22.807-37.252,39.824-52.512c17.012-15.258,37.022-27.606,60.027-37.045
					c23.414-9.606,44.921-13.331,64.521-11.177c19.603,2.16,36.469,8.917,50.607,20.27c14.137,11.357,24.831,25.867,32.077,43.529
					c5.141,12.53,8.411,25.765,9.812,39.706c1.403,13.945,0.592,27.472-2.424,40.588c-3.021,13.117-8.345,24.838-15.984,35.172
					C2613.886,863.73,2603.598,871.552,2590.658,876.86z M2508.117,878.332c5.339-2.19,9.689-5.471,13.054-9.854
					c3.362-4.377,5.907-9.139,7.634-14.291c1.726-5.145,2.854-10.287,3.39-15.428c0.53-5.133,0.574-9.414,0.134-12.832
					c-0.911-14.502-3.367-25.011-7.359-31.535c-3.995-6.516-8.823-10.237-14.476-11.158c-5.657-0.918-11.464-0.155-17.418,2.288
					c-6.162,2.528-10.958,6.779-14.389,12.741c-3.433,5.97-5.682,12.77-6.746,20.405c-1.067,7.636-1.069,15.376-0.011,23.22
					c1.059,7.845,2.895,14.952,5.506,21.316c3.203,7.808,7.521,12.931,12.968,15.376
					C2495.844,881.028,2501.749,880.944,2508.117,878.332z"></path></g><g><path fill="#d1e6fc" d="M3633.377,1338.211c-4.26,0-8.278-2.181-10.585-5.856l-71.304-113.624L3304,1146.716
					c-44.54-12.961-70.231-59.739-57.271-104.276l40.353-138.673c12.959-44.538,59.741-70.227,104.277-57.268l282.918,82.326
					c44.537,12.96,70.228,59.737,57.268,104.275l-12.002-3.493l12.002,3.493l-40.352,138.672c-0.627,2.154-1.355,4.316-2.178,6.464
					c-0.062,0.88-0.216,1.762-0.469,2.63l-43.164,148.336c-1.375,4.728-5.398,8.207-10.274,8.887
					C3634.528,1338.172,3633.95,1338.211,3633.377,1338.211z M3367.879,868.143c-25.62,0-49.284,16.802-56.794,42.609
					l-40.353,138.673c-9.108,31.301,8.949,64.177,40.252,73.287l252.056,73.345c2.942,0.856,5.467,2.762,7.096,5.357l59.025,94.058
					l34.114-117.239c-0.102-1.941,0.249-3.916,1.074-5.76c1.141-2.548,2.097-5.134,2.839-7.687l40.352-138.671
					c9.108-31.301-8.947-64.177-40.248-73.286l-282.918-82.325C3378.879,868.905,3373.334,868.143,3367.879,868.143z"></path><circle cx="3388.517" cy="1009.086" r="32.193" fill="#d1e6fc"></circle><circle cx="3488.977" cy="1038.318" r="32.193" fill="#d1e6fc"></circle><circle cx="3589.438" cy="1067.551" r="32.193" fill="#d1e6fc"></circle></g><g><path fill="#98a66c" d="M2139.587,1671.386c0,0,201.628-26.182,262.05-363.055
						c41.146-229.408,173.553-247.431,287.378-319.308c113.825-71.877,215.243-316.147,215.243-316.147
						s92.948,210.021,13.797,336.675c-90.934,145.509-1.481,277.566-123.338,372.889c-121.857,95.322-107.16,268.636-141.693,470.42
						s-671.306,681.696-671.306,681.696l-135.6-9.887c0,0-92.266-234.704-63.88-436.201
						C1810.999,1884.318,1894.515,1751.165,2139.587,1671.386z"></path><path fill="#838f5d" d="M2904.258,672.875c2.534,64.5-4.318,129.817-22.62,191.838
							c-1.295,3.945-2.906,9.157-4.063,12.66c-0.851,2.352-3.552,10.013-4.47,12.537c-4.664,12.274-10.174,24.943-16.131,36.619
							c-3.123,5.935-7.364,13.653-10.968,19.441c-3.015,5.012-6.513,10.14-9.875,14.938c-24.644,33.404-53.971,63.174-85.765,89.778
							c-45.912,38.228-96.233,71.197-135.374,116.583c-12.078,13.885-23.799,28.954-33.872,44.372
							c-20.07,31.285-31.227,67.163-38.338,103.478c-6.848,34.338-10.823,69.254-16.775,103.84
							c-5.962,35.201-13.928,69.986-25.894,103.778c-8.006,22.448-17.785,44.599-29.239,65.507
							c-48.796,92.986-124.413,136.83-214.223,182.964c-70.737,36.733-139.52,78.225-197.766,133.019c0,0-3.012,3.063-3.012,3.063
							l-6.027,6.125c-2.01,2.042-4.05,4.054-5.918,6.236l-5.732,6.421c-98.191,111.741-143.122,281.636-148.834,427.878
							c-1.303,34.529-0.716,70.631,2.337,105.068c2.018,23.309,5.09,46.535,9.099,69.635
							c-8.904-39.918-14.533-81.096-16.723-121.971c-1.889-31.877-1.716-65.141,0.255-96.987c1.146-20.096,3.275-41.64,5.956-61.533
							c0.579-3.939,1.269-9.603,1.792-13.139c0,0,0.718-4.361,0.718-4.361l2.874-17.451
							c20.956-114.97,65.478-232.947,148.238-317.866c42.162-41.686,91.137-76.46,142.03-106.604
							c40.351-23.96,82.706-44.591,123.127-67.964c39.781-22.89,77.19-49.947,106.557-85.262
							c59.577-71.437,84.718-163.658,97.531-254.286c7.462-46.797,13.942-94.55,32.646-138.573
							c2.442-5.924,4.917-10.992,7.607-16.491c2.441-4.833,4.069-7.519,6.469-12.014c0,0,2.373-3.885,2.373-3.885
							c1.606-2.575,3.119-5.208,4.806-7.73l5.15-7.508l1.289-1.875l1.335-1.797c14.895-20.328,31.865-39.725,50.063-57.166
							c53.151-50.775,118.366-86.595,168.88-140.068c15.99-16.611,31.559-33.929,44.138-53.29
							c9.347-14.275,17.715-30.107,24.496-45.782c5.587-12.758,11.023-27.459,15.16-40.797
							C2895.669,795.68,2903.893,734.127,2904.258,672.875L2904.258,672.875z"></path><path fill="#98a66c" d="M1447.618,2112.301c0,0-201.628-26.182-262.049-363.055
						c-41.147-229.408-173.553-247.431-287.378-319.308s-215.243-316.147-215.243-316.147s-92.948,210.021-13.797,336.675
						c90.934,145.509,1.481,277.566,123.338,372.889c121.857,95.322,107.16,268.636,141.694,470.42
						c34.533,201.784,671.306,681.696,671.306,681.696l135.6-9.887c0,0,92.266-234.704,63.88-436.201
						C1776.207,2325.234,1692.69,2192.081,1447.618,2112.301z"></path><path fill="#838f5d" d="M682.947,1113.791c0.301,59.816,8.306,119.855,25.374,177.223
							c1.816,5.84,4.74,14.884,6.871,20.686c1.513,4.429,4.458,11.816,6.192,16.273c7.674,18.557,16.87,36.993,27.913,53.777
							c12.579,19.36,28.148,36.68,44.137,53.29c50.517,53.477,115.728,89.291,168.881,140.067
							c18.207,17.457,35.162,36.829,50.062,57.166c1.598,2.048,6.166,8.88,7.774,11.18c2.359,3.599,4.887,7.917,7.18,11.616
							c2.073,3.886,4.543,8.138,6.47,12.014c2.511,5.095,5.531,11.397,7.606,16.491c18.704,44.025,25.184,91.776,32.645,138.573
							c12.81,90.618,37.957,182.858,97.533,254.286c29.368,35.316,66.773,62.371,106.556,85.262
							c40.422,23.374,82.774,44.003,123.126,67.965c50.898,30.148,99.863,64.914,142.029,106.604
							c82.752,84.906,127.28,202.889,148.239,317.865c0,0,2.873,17.451,2.873,17.451l0.718,4.362l0.604,4.379l1.188,8.76
							c2.746,19.982,4.75,41.418,5.957,61.533c1.976,31.85,2.153,65.128,0.255,96.987c-2.192,40.875-7.823,82.042-16.724,121.971
							c10.127-57.453,13.772-116.422,11.436-174.704c-5.705-146.185-50.627-316.123-148.834-427.879
							c-6.295-7.338-13.911-15.007-20.689-21.845c-58.251-54.798-127.026-96.284-197.767-133.017
							c-89.881-46.185-165.394-89.953-214.221-182.967c-11.454-20.907-21.234-43.057-29.24-65.506
							c-11.965-33.793-19.932-68.577-25.894-103.778c-5.952-34.586-9.928-69.503-16.775-103.84
							c-7.111-36.312-18.272-72.198-38.339-103.478c-10.065-15.405-21.799-30.495-33.871-44.373
							c-39.141-45.384-89.46-78.353-135.375-116.583c-31.793-26.604-61.119-56.372-85.764-89.778
							c-0.925-1.177-1.71-2.45-2.553-3.682l-2.493-3.722c-1.657-2.484-3.349-4.944-4.829-7.534l-4.587-7.672
							c-1.491-2.577-2.843-5.229-4.269-7.839l-2.112-3.929c-8.637-16.967-16.108-35.257-21.962-53.376c0,0-2.702-8.441-2.702-8.441
							l-2.454-8.51l-1.218-4.256l-1.109-4.284C686.222,1231.642,680.577,1172.445,682.947,1113.791L682.947,1113.791z"></path><g><path fill="#98a66c" d="M3300.369,3030.535c0,0,317.327-67.791,486.471-351.521
						c169.145-283.73,49.47-363.274,159.172-571.098c109.702-207.824,334.22-324.405,230.64-664.738
						c-75.756-248.908,53.2-368.176,53.2-368.176s-225.867,114.948-357.076,316.206
						c-131.208,201.258-159.436,436.715-278.642,538.639c-154.254,131.891-374.711,122.922-435.14,704.572
						c-12.836,220.249-125,396.116-125,396.116H3300.369z"></path><path fill="#838f5d" d="M4229.852,1075.002c-75.826,55.94-139.059,128.774-187.487,209.305
							c-39.654,65.461-65.547,137.953-84.18,211.908c-27.919,108.992-42.176,221.86-84.595,327.054
							c-25.511,63.965-61.187,124.012-104.538,177.537c-16.817,20.63-35.139,41.129-53.608,60.233
							c-49.313,51.632-103.687,98.112-158.99,142.975c-27.298,22.465-54.271,44.828-79.322,69.575
							c-24.77,24.49-47.185,51.453-66.24,80.619c-69.736,109.049-101.189,237.902-130.31,362.771
							c-17.932,80.007-33.227,162.771-47.188,243.597c-2.84,16.786-9.095,52.979-11.872,69.959
							c2.076-17.734,6.645-52.755,8.937-70.408c12.662-93.783,27.417-187.498,46.935-280.149
							c14.954-69.621,32.236-138.911,56.759-205.973c19.49-53.295,44.099-105.434,77.406-151.613
							c36.442-51.388,84.503-93.3,132.77-133.057c63.732-52.191,125.894-106.331,180.98-167.61
							c23.333-25.605,45.667-53.646,65.063-82.359c53.442-77.257,86.282-165.965,108.389-256.981
							c17.109-68.857,30.32-138.828,50.263-207.055c31.232-115.08,89.93-222.367,172.771-308.327
							C4154.62,1132.893,4190.165,1100.945,4229.852,1075.002L4229.852,1075.002z"></path></g><g><rect width="258.252" height="1254.58" x="2445.128" y="2091.446" fill="#293463"></rect><rect width="258.252" height="105.474" x="2445.128" y="2995.972" fill="#212b54"></rect><rect width="258.252" height="105.474" x="2445.128" y="3247.787" fill="#212b54"></rect><path fill="#293463" d="M3096.96,3403.993H2051.548c-26.259,0-39.63-31.547-21.369-50.417l17.436-18.017
							c29.381-30.36,69.822-47.501,112.071-47.501h829.137c42.249,0,82.69,17.141,112.071,47.501l17.436,18.017
							C3136.59,3372.446,3123.219,3403.993,3096.96,3403.993z"></path><g><path fill="#293463" d="M3982.513,3048.708H1168.8c-22.031,0-39.892-17.86-39.892-39.892V1484.21
							c0-22.031,17.86-39.892,39.892-39.892h2813.713c22.032,0,39.892,17.86,39.892,39.892v1524.607
							C4022.404,3030.848,4004.544,3048.708,3982.513,3048.708z"></path><path fill="#e3effc" d="M3941.597,2915.809H1206.911c-20.644,0-37.379-16.735-37.379-37.379V1530.451
								c0-20.644,16.735-37.379,37.379-37.379h2734.686c20.644,0,37.379,16.735,37.379,37.379V2878.43
								C3978.976,2899.074,3962.241,2915.809,3941.597,2915.809z"></path><path fill="#d1e6fc" d="M3665.84,1493.071h-179.266H2021.398h-179.266c-1.65,6.619-2.563,13.529-2.563,20.66v734.305
									c0,47.19,38.256,85.446,85.447,85.446h179.266H3403.69h179.266c47.191,0,85.447-38.256,85.447-85.446v-734.305
									C3668.403,1506.6,3667.49,1499.69,3665.84,1493.071z"></path><path fill="#d1e6fc" d="M2366.741,2084.491H1169.532v793.939c0,20.644,16.735,37.378,37.379,37.378h1244.476
									c0.513-3.784,0.801-7.641,0.801-11.567v-734.304C2452.188,2122.746,2413.932,2084.491,2366.741,2084.491z"></path><g><path fill="#fff" d="M3784.955,2519.812H2046.061v-695.09h1738.895V2519.812z M2060.061,2505.812h1710.895
									v-667.09H2060.061V2505.812z"></path><path fill="#fff" d="M3985.976 2761.094h-536.078V2258.34h536.078V2761.094zM3463.897 2747.094h508.078V2272.34h-508.078V2747.094zM3264.56 2777.073H1525.665v-695.089H3264.56V2777.073zM1539.665 2763.073H3250.56v-667.089H1539.665V2763.073z"></path></g></g><g><path fill="#86a3f4" d="M2277.95,1780.458H1011.444c-47.191,0-85.447-38.256-85.447-85.447V960.706
								c0-47.191,38.256-85.447,85.447-85.447H2277.95c47.191,0,85.447,38.256,85.447,85.447v734.304
								C2363.398,1742.202,2325.142,1780.458,2277.95,1780.458z"></path><path fill="#7999f2" d="M1924.961,1255.604c-47.191,0-85.447,38.256-85.447,85.446v439.407h438.436
								c47.191,0,85.447-38.255,85.447-85.447v-439.406H1924.961z"></path><circle cx="1195.532" cy="1279.345" r="206.826" fill="#bddcfc"></circle><circle cx="1195.532" cy="1233.483" r="96.548" fill="#6389f2"></circle><path fill="#6389f2" d="M1195.533,1486.17c56.137,0,107.02-22.4,144.286-58.707l-0.49-2.109
										c-15.534-66.884-75.132-114.227-143.795-114.227c-68.665,0-128.263,47.343-143.797,114.227l-0.49,2.108
										C1088.512,1463.77,1139.394,1486.17,1195.533,1486.17z"></path><g><path fill="#a5c0fa" d="M2228.8 1177.386h-702.591c-13.749 0-24.894-11.145-24.894-24.894s11.145-24.894 24.894-24.894H2228.8c13.749 0 24.894 11.145 24.894 24.894S2242.549 1177.386 2228.8 1177.386zM1689.091 1385.396h-162.882c-13.749 0-24.894-11.145-24.894-24.894s11.145-24.894 24.894-24.894h162.882c13.749 0 24.894 11.145 24.894 24.894S1702.84 1385.396 1689.091 1385.396zM2241.247 1385.396h-424.204c-13.749 0-24.894-11.145-24.894-24.894s11.145-24.894 24.894-24.894h424.204c13.749 0 24.894 11.145 24.894 24.894S2254.996 1385.396 2241.247 1385.396zM2228.8 1593.407H1013.6c-13.749 0-24.894-11.145-24.894-24.894s11.145-24.894 24.894-24.894h1215.2c13.749 0 24.894 11.145 24.894 24.894S2242.549 1593.407 2228.8 1593.407z"></path></g><g><rect width="1437.4" height="14" x="925.997" y="988.538" fill="#7999f2"></rect><circle cx="2015.72" cy="937.363" r="32.785" fill="#6389f2"></circle><circle cx="2118.315" cy="937.363" r="32.785" fill="#a7c2fc"></circle><circle cx="2220.91" cy="937.363" r="32.785" fill="#6389f2"></circle></g><g><path fill="#9cbafa" d="M3491.932,2231.681H2013.259c-47.191,0-85.447-38.256-85.447-85.447V1411.93
									c0-47.191,38.256-85.447,85.447-85.447h1478.674c47.191,0,85.447,38.256,85.447,85.447v734.304
									C3577.38,2193.425,3539.124,2231.681,3491.932,2231.681z"></path><path fill="#87acfa" d="M2452.18,1917.848c0-47.191-38.256-85.447-85.446-85.447h-439.407v313.348
									c0,47.191,38.255,85.448,85.448,85.448h439.406V1917.848z"></path><circle cx="2197.347" cy="1730.568" r="206.826" fill="#bddcfc"></circle><path fill="#97c9fc" d="M2376.979,1833.034c-3.362-0.403-6.775-0.633-10.244-0.633h-349.383
											c35.536,62.673,102.803,104.993,179.996,104.993C2274.279,1937.393,2341.35,1895.359,2376.979,1833.034z"></path><g><circle cx="2197.347" cy="1684.707" r="96.548" fill="#7597f4"></circle><path fill="#7597f4" d="M2197.347,1937.394c56.137,0,107.02-22.4,144.286-58.707l-0.49-2.109
											c-15.533-66.884-75.132-114.227-143.795-114.227c-68.665,0-128.263,47.343-143.796,114.227l-0.49,2.109
											C2090.326,1914.994,2141.208,1937.394,2197.347,1937.394z"></path><path fill="#6387eb" d="M2341.633,1878.687l-0.49-2.109c-3.709-15.972-9.956-30.813-18.215-44.177h-251.163
											c-8.259,13.364-14.505,28.205-18.215,44.177l-0.49,2.109c37.266,36.307,88.148,58.707,144.287,58.707
											C2253.484,1937.393,2304.367,1914.994,2341.633,1878.687z"></path></g><g><path fill="#c6d6fa" d="M2903.807 1628.609h-375.783c-13.749 0-24.894-11.145-24.894-24.894s11.145-24.894 24.894-24.894h375.783c13.749 0 24.894 11.145 24.894 24.894S2917.555 1628.609 2903.807 1628.609zM3444.406 1628.609h-375.783c-13.749 0-24.894-11.145-24.894-24.894s11.146-24.894 24.894-24.894h375.783c13.749 0 24.894 11.145 24.894 24.894S3458.155 1628.609 3444.406 1628.609zM3023.631 1836.62h-495.607c-13.749 0-24.894-11.145-24.894-24.894 0-13.749 11.145-24.894 24.894-24.894h495.607c13.749 0 24.894 11.145 24.894 24.894C3048.525 1825.474 3037.379 1836.62 3023.631 1836.62zM3442.782 1836.62H3263.11c-13.749 0-24.894-11.145-24.894-24.894 0-13.749 11.145-24.894 24.894-24.894h179.673c13.749 0 24.894 11.145 24.894 24.894C3467.676 1825.474 3456.531 1836.62 3442.782 1836.62zM3442.782 2044.631H2015.415c-13.749 0-24.894-11.145-24.894-24.894 0-13.749 11.145-24.894 24.894-24.894h1427.367c13.749 0 24.894 11.145 24.894 24.894S3456.531 2044.631 3442.782 2044.631z"></path></g><rect width="1649.568" height="14" x="1927.812" y="1439.761" fill="#87acfa"></rect><g><circle cx="3229.702" cy="1388.586" r="32.785" fill="#6389f2"></circle><circle cx="3332.297" cy="1388.586" r="32.785" fill="#c6d6fa"></circle><circle cx="3434.892" cy="1388.586" r="32.785" fill="#6389f2"></circle></g><path fill="#6389f2" d="M1927.812,1755.149c-3.038,0-5.5-2.462-5.5-5.5v-337.72c0-50.148,40.799-90.947,90.947-90.947
							h328.374c3.038,0,5.5,2.462,5.5,5.5s-2.462,5.5-5.5,5.5h-328.374c-44.083,0-79.947,35.864-79.947,79.947v337.72
							C1933.312,1752.687,1930.849,1755.149,1927.812,1755.149z"></path></g><g><path fill="#86a3f4" d="M2291.253,2824.59H772.848c-47.191,0-85.447-38.256-85.447-85.447v-734.304
								c0-47.191,38.256-85.447,85.447-85.447h1518.405c47.191,0,85.447,38.256,85.447,85.447v734.304
								C2376.7,2786.334,2338.444,2824.59,2291.253,2824.59z"></path><circle cx="956.936" cy="2323.477" r="206.826" fill="#bddcfc"></circle><circle cx="956.936" cy="2277.615" r="96.548" fill="#6389f2"></circle><path fill="#6389f2" d="M956.936,2530.302c56.137,0,107.019-22.4,144.285-58.707l-0.49-2.109
									c-15.534-66.884-75.132-114.227-143.795-114.227c-68.665,0-128.263,47.343-143.797,114.227l-0.49,2.108
									C849.916,2507.903,900.798,2530.302,956.936,2530.302z"></path><path fill="#a5c0fa" d="M1885.777 2221.518h-598.164c-13.749 0-24.894-11.146-24.894-24.894s11.145-24.894 24.894-24.894h598.164c13.749 0 24.894 11.146 24.894 24.894S1899.526 2221.518 1885.777 2221.518zM2242.103 2221.518h-205.661c-13.749 0-24.894-11.146-24.894-24.894s11.145-24.894 24.894-24.894h205.661c13.749 0 24.894 11.146 24.894 24.894S2255.851 2221.518 2242.103 2221.518zM1471.35 2429.529h-183.736c-13.749 0-24.894-11.146-24.894-24.894s11.145-24.894 24.894-24.894h183.736c13.749 0 24.894 11.145 24.894 24.894S1485.098 2429.529 1471.35 2429.529zM2242.103 2429.529h-635.345c-13.749 0-24.894-11.146-24.894-24.894s11.145-24.894 24.894-24.894h635.345c13.749 0 24.894 11.145 24.894 24.894S2255.851 2429.529 2242.103 2429.529zM1333.391 2637.54H775.004c-13.749 0-24.894-11.145-24.894-24.894s11.145-24.894 24.894-24.894h558.387c13.749 0 24.894 11.146 24.894 24.894S1347.14 2637.54 1333.391 2637.54zM2242.103 2637.54h-558.387c-13.749 0-24.894-11.145-24.894-24.894s11.145-24.894 24.894-24.894h558.387c13.749 0 24.894 11.146 24.894 24.894S2255.851 2637.54 2242.103 2637.54zM1569.417 2637.54h-115.578c-13.749 0-24.894-11.145-24.894-24.894s11.145-24.894 24.894-24.894h115.578c13.748 0 24.894 11.146 24.894 24.894S1583.165 2637.54 1569.417 2637.54z"></path><rect width="1689.299" height="14" x="687.401" y="2032.67" fill="#7999f2"></rect><g><circle cx="2029.022" cy="1981.495" r="32.785" fill="#6389f2"></circle><circle cx="2131.617" cy="1981.495" r="32.785" fill="#a7c2fc"></circle><circle cx="2234.212" cy="1981.495" r="32.785" fill="#6389f2"></circle></g><path fill="#6389f2" d="M2376.7,2202.124c-3.038,0-5.5-2.463-5.5-5.5v-191.785c0-44.083-35.864-79.947-79.947-79.947
							h-347.06c-3.038,0-5.5-2.462-5.5-5.5s2.462-5.5,5.5-5.5h347.06c50.148,0,90.947,40.799,90.947,90.947v191.785
							C2382.2,2199.661,2379.738,2202.124,2376.7,2202.124z"></path></g></g></g><g><path fill="#de9681" d="M3365.876,2253.652c-59.487-137.799-134.558-238.251-144.089-250.757
							c-0.326-0.438-0.656-0.872-0.995-1.298c-12.681-15.924-34.073-23.582-54.877-17.756
							c-27.723,7.763-43.904,36.531-36.141,64.254c1.01,3.606,2.378,7.014,4.05,10.202l-0.258,0.168
							c0,0,51.626,98.148,162.858,239.258c9.087,16.167,28.336,24.668,46.989,19.445c21.899-6.132,34.681-28.856,28.549-50.755
							C3370.642,2261.705,3368.555,2257.42,3365.876,2253.652z"></path><path fill="#d9ab91" d="M3140.612,1983.789c0,0-34.166,30.162-10.315,82.976
							c23.851,52.813,132.686,207.694,160.967,237.015s68.259,13.154,82.986-5.836c14.727-18.99-14.067-67.508-27.275-95.597
							c-13.208-28.089-89.045-250.341-170.176-234.761C3145.758,1967.154,3140.612,1983.789,3140.612,1983.789z"></path><path fill="#cc987a" d="M3247.086,2043.688c0,0,50.784,146.463,63.375,189.775
							c7.666,26.369,8.436,57.611,12.898,86.185c-11.078-1.008-22.29-5.702-32.095-15.869
							c-22.125-22.939-93.553-122.727-135.02-190.369C3207.242,2070.499,3247.086,2043.688,3247.086,2043.688z"></path><g><path fill="#de9681" d="M3284.456,2282.359c-0.15,1.042-0.261,2.062-0.336,3.094
							c-13.08,120.408-34.852,282.569-34.852,282.569c0.083,0.909,0.048,1.811,0.072,2.725
							c0.337,12.818,11.001,22.936,23.819,22.599c11.339-0.298,20.56-8.68,22.304-19.484
							c78.306-203.873,76.187-284.447,76.187-284.447c-0.033-0.632-0.033-1.263-0.05-1.897
							c-0.636-24.185-20.758-43.275-44.942-42.638C3305.01,2245.447,3287.448,2261.628,3284.456,2282.359z"></path><path fill="#d9ab91" d="M3325.65,2231.947c0,0-39.359-5.775-54.269,48.025c-14.91,53.8-36.174,264.425-36.174,264.425
							s48.687,25.889,95.65,23.841c0,0,50.902-254.325,47.191-279.947S3355.169,2237.809,3325.65,2231.947z"></path><path fill="#cc987a" d="M3310.461,2233.463c12.592,43.312,6.558,99.786,28.889,135.957
							c6.986,11.316,16.557,14.206,26.411,12.836c-14.039,81.734-34.903,185.98-34.903,185.98
							c-46.964,2.048-95.651-23.841-95.651-23.841s21.264-210.625,36.175-264.424
							C3280.239,2248.011,3297.725,2237.075,3310.461,2233.463z"></path></g><g><path fill="#de9681" d="M3338.542,3073.53c0.002,0-3.951-408.22-16.685-495.662
								c-6.302-47.623-47.058-84.375-96.402-84.375c-52.324,0-94.989,41.325-97.155,93.117
								c-0.094,0.043-1.845,100.942,26.19,231.921c25.979,121.373,67.124,260.089,73.019,279.782
								c6.65,24.072,28.706,41.75,54.893,41.75c31.451,0,56.947-25.496,56.947-56.947
								C3339.35,3079.848,3339.071,3076.646,3338.542,3073.53z"></path><path fill="#4e61a3" d="M3214.31,2477.938c0,0-124.93,5.139-108.413,153.104s78.819,401.064,99.846,463.365
								c21.027,62.301,66.195,75.54,93.452,70.089c27.257-5.451,52.16-34.725,52.939-65.096c0,0,1.477-17.825,0-58.233
								c0,0-1.497-322.125-13.59-442.054C3326.452,2479.183,3246.906,2476.359,3214.31,2477.938z"></path><path fill="#35427a" d="M3129.592,2778.545c25.389,130.831,61.202,271.568,76.151,315.862
								c5.353,15.86,12.272,28.534,20.06,38.536c-0.308-68.604-0.624-178.913,0.301-216.172c1.38-55.551,33.755-227.9,33.755-227.9
								l23.322-52.762c-25.582,24.154-88.368,29.95-88.368,29.95L3129.592,2778.545z"></path><g><path fill="#de9681" d="M3425.052,3528.08c-5.791-39.511-24.812-168.436-37.319-243.185
									c-14.902-89.062-48.063-204.825-48.063-204.825c-2.93-27.112-25.05-48.961-53.182-50.661
									c-31.394-1.897-58.382,22.014-60.279,53.408c-0.37,6.122,0.246,12.075,1.703,17.709c0,0.004,8.088,100.306,140.281,435.872
									c-0.978,16.18,11.346,30.089,27.526,31.067c16.18,0.978,30.089-11.345,31.067-27.525
									C3427.037,3535.774,3426.402,3531.762,3425.052,3528.08z"></path><path fill="#de9681" d="M3434.181,3555.345c-6.801-17.259-8.999-30.753-8.999-30.753
										c-1.381-15.388-14.558-27.203-30.194-26.689c-16.2,0.533-28.902,14.098-28.369,30.298c0.103,3.12,0.693,6.107,1.688,8.898
										c2.23,20.576-57.399,19.869-81.15,19.626c-29.076-0.298-50.333,10.241-47.174,23.383
										c3.159,13.142,38.514,24.162,74.533,25.195c26.916,0.772,83.987,14.281,111.063,8.326
										C3452.655,3607.674,3440.982,3572.604,3434.181,3555.345z"></path><path fill="#e8d3d3" d="M3220.452,3589.077c0,0,0.332,6.917,1.964,9.165c2.942,4.051,21.979,11.772,45.872,16.079
										c23.893,4.307,58.178-3.437,103.754,4.091c13.747,1.964,39.931,4.582,50.077,4.255s31.737-7.528,33.87-9.819
										c2.133-2.291-0.158-14.074-0.158-14.074L3220.452,3589.077z"></path><path fill="#966363" d="M3433.237,3528.461c0,0-14.064,1.906-19.628,3.87c-5.564,1.964-13.419,9.094-17.674,13.057
											s-9.819,8.771-12.438,9.149s-28.706,15.664-41.143,4.052c-2.206-2.059,6.933-4.962,6.933-4.962
											s17.875-4.393,18.894-13.856c0,0-3.339-3.185-6.612-2.53c-3.273,0.655-18.271,8.439-29.457,10.801
											c-30.766,6.495-45.917,5.201-61.3,8.052s-30.21,5.511-37.738,10.093c-7.528,4.582-12.294,17.326-12.622,22.89
											c0,0-1.853,7.352,38.017,12.97c25.447,3.586,73.315-0.982,91.317,0s67.751,18.329,106.045-3.273
											c0,0,0.846-15.056-1.377-22.584c-2.223-7.528-14.661-34.366-16.952-38.294
											C3435.211,3533.968,3436.129,3528.352,3433.237,3528.461z"></path><path fill="#825656" d="M3342.041 3558.085c-.496-1.998 7.246-4.458 7.246-4.458s17.875-4.394 18.894-13.856c0 0-2.064-1.96-4.536-2.484-.765.647-1.003 1.791-1.943 3.599-1.543 2.968-7.478 5.222-12.701 7.715-5.222 2.493-6.053 3.798-6.96 6.291C3341.134 3557.384 3342.04 3558.085 3342.041 3558.085zM3233.073 3571.591c13.167-.476 27.807-.473 41.049-.567 9.056-.098 18.194.075 27.194-.729 11.244-.963 22.411-3.36 32.916-7.546 2.107-.847 4.197-1.753 6.21-2.834-1.846 1.351-3.829 2.521-5.86 3.589-14.327 7.527-30.704 10.29-46.763 10.393C3269.527 3574.047 3251.28 3573.344 3233.073 3571.591L3233.073 3571.591zM3384.993 3557.093c-2.22 14.665-2.056 29.503-.594 44.216.171 2.122.483 4.225.594 6.389C3379.117 3592.187 3378.313 3572.466 3384.993 3557.093L3384.993 3557.093zM3433.237 3528.462c0 0-14.064 1.906-19.628 3.87-5.564 1.964-13.42 9.094-17.674 13.057-3.564 3.32-8.041 7.222-10.941 8.627 0 0 7.257-2.091 18.32-8.237 9.707-5.393 26.511-7.237 33.597-9.061C3435.365 3533.202 3435.84 3528.363 3433.237 3528.462z"></path><g><path fill="#4e61a3" d="M3205.852,3092.899c0,0,33.558,133.51,54.685,206.154
								c23.584,81.093,77.466,219.732,77.466,219.732s52.424,11.254,93.982-7.28c0,0-48.53-323.611-79.85-412.104
								c-8.754-24.735-10.147-44.304-35.156-63.76C3270.43,2999.428,3203.648,3023.645,3205.852,3092.899z"></path><path fill="#35427a" d="M3225.509,3036.96c-12.56,12.545-20.437,31.414-19.657,55.939c0,0,8.76,34.848,20.144,78.62
								C3225.843,3143.802,3225.578,3089.465,3225.509,3036.96z"></path></g></g><g><path fill="#de9681" d="M3046.143,2477.7c0,0,12.242,127.546,23.307,161.319
							c11.065,33.773,149.577,19.941,200.855-7.122c51.278-27.063,65.802-88.311,47.145-163.803
							c-18.657-75.492-23.753-59.824-23.753-59.824L3046.143,2477.7z"></path><path fill="#4e61a3" d="M3028.636,2472.367c0,0-4.267,150.577-6.11,167.51c-1.844,16.934,109.745,31.266,182.209,24.446
						c72.465-6.82,104.028-52.368,104.028-52.368s36.567-34.55,17.367-134.256c-15.401-61.647-25.913-91.745-25.913-91.745
						L3028.636,2472.367z"></path></g><g><path fill="#de9681" d="M3248.909,2590.741c0-53.709-43.54-97.249-97.249-97.249c-44.61,0-82.2,30.038-93.658,70.991
							c-0.002,0-46.082,152.417-37.321,518.632c0.056,1.463,0,2.915,0,4.381c0,31.451,25.496,56.947,56.947,56.947
							c26.909,0,49.456-18.665,55.408-43.754c0,0,102.234-332.996,115.186-498.351
							C3248.67,2598.534,3248.909,2594.666,3248.909,2590.741z"></path><path fill="#4e61a3" d="M3153.28,2478.404c0,0-114.686-18.55-132.597,178.407
								c-5.451,51.329-14.034,200.851-17.53,334.799c-3.496,133.948,5.07,161.983,69.708,168.992
								c26.478,0,61.523-20.248,75.541-53.735c0,0,5.426-17.272,10.124-52.177c0,0,65.416-234.408,84.107-346.551
								C3261.321,2595.998,3270.873,2505.661,3153.28,2478.404z"></path><g><path fill="#de9681" d="M3121.308,3097.864c0,0-0.084-0.042-0.243-0.12c0.604-3.325,0.921-6.75,0.921-10.248
									c0-31.451-25.496-56.947-56.947-56.947c-29.944,0-54.489,23.112-56.773,52.469c-0.175,0.097-0.076,1.168-0.076,1.168
									c-0.063,1.095-0.098,2.198-0.098,3.31c0,4.708,0.575,9.28,1.652,13.654l40.84,445.866c0,16.209,13.141,29.35,29.35,29.35
									s29.349-13.141,29.349-29.35C3109.282,3547.017,3148.269,3270.165,3121.308,3097.864z"></path><path fill="#de9681" d="M3119.455,3580.747c-7.398-14.407-10.173-33.73-10.173-33.73
									c0-16.209-13.14-29.35-29.349-29.35s-29.35,13.14-29.35,29.35c0,1.694,0.152,3.351,0.427,4.967
									c-3.82,26.53-53.821,28.763-80.688,32.657c-26.867,3.894-62.691,13.628-59.575,31.929
									c3.115,18.301,95.391,17.593,118.365,16.425c22.974-1.168,60.362,6.159,83.335,0.319
									C3135.42,3627.473,3126.853,3595.154,3119.455,3580.747z"></path><path fill="#e8d3d3" d="M2893.046,3613.141c0,0,0,7.417,2.023,9.44c1.216,1.216,24.948,9.555,49.559,13.991
										c24.611,4.436,59.926-3.54,106.872,4.214c14.16,2.023,41.131,4.72,51.582,4.383c10.451-0.337,32.691-7.754,34.888-10.114
										c2.197-2.36-0.163-14.497-0.163-14.497L2893.046,3613.141z"></path><path fill="#966363" d="M3114.544,3549.759c0,0-14.496,0.337-20.228,2.36c-5.731,2.023-13.823,9.367-18.206,13.449
											c-4.383,4.082-10.114,9.034-12.811,9.424c-2.697,0.389-29.569,16.135-42.38,4.174c-2.272-2.121,7.141-5.111,7.141-5.111
											s14.699-3.792,20.155-14.25c0,0-4.133-3.302-7.505-2.628s-18.821,8.693-30.342,11.125
											c-31.691,6.69-54.953,6.503-70.799,9.44c-15.845,2.937-28.319,6.406-36.073,11.125s-10.114,18.542-10.451,24.274
											c0,0,15.171,7.754,41.468,10.789c26.297,3.034,75.519-1.011,94.061,0c18.542,1.011,69.787,18.88,109.232-3.372
											c0,0,0.872-15.508-1.418-23.262s-15.101-35.399-17.461-39.445C3116.568,3553.805,3117.523,3549.646,3114.544,3549.759z"></path><path fill="#825656" d="M3020.943 3577.624c1.513-1.788 7.119-3.57 7.119-3.57s14.699-3.791 20.155-14.25c0 0-2.066-1.644-4.466-2.374-.658 1.186-2.048 2.871-4.906 3.871C3034.096 3562.963 3017.049 3570.208 3020.943 3577.624L3020.943 3577.624zM2908.355 3592.559c18.475-.63 37.859-.38 56.344-.669 16.302-.041 32.677-2.322 47.86-8.428 2.169-.875 4.321-1.813 6.392-2.931-1.905 1.388-3.948 2.589-6.042 3.685-14.766 7.728-31.622 10.567-48.163 10.672C2945.906 3595.046 2927.111 3594.327 2908.355 3592.559L2908.355 3592.559zM3064.841 3577.624c-2.343 15.098-2.174 30.396-.634 45.549.182 2.185.51 4.351.634 6.577C3058.851 3613.773 3058.022 3593.46 3064.841 3577.624L3064.841 3577.624zM3114.544 3549.759c0 0-14.496.337-20.228 2.36-5.731 2.023-13.823 9.367-18.206 13.449-3.671 3.419-8.282 7.439-11.27 8.886 0 0 7.475-2.154 18.871-8.484 9.999-5.555 27.308-7.454 34.607-9.333C3116.727 3553.016 3117.225 3549.657 3114.544 3549.759z"></path><path fill="#4e61a3" d="M3074.417,3011.859c0,0-66.812-1.914-69.618,77.309
							c-2.807,79.223,25.736,444.489,25.736,444.489s49.182,16.334,100.274,0c0,0,23.182-243.698,15.807-436.998
							C3138.154,3044.481,3125.037,3016.531,3074.417,3011.859z"></path></g></g></g><g><path fill="#de9681" d="M3049.933,1960.259c0,0,15.424,47.803,11.023,72.975s36.159,28.495,59.906,21.503
							c23.748-6.992,56.521-30.735,52.617-60.639c-3.903-29.904-18.36-14.056-37.26-92.967
							C3121.435,1839.406,3026.156,1902.072,3049.933,1960.259z"></path><path fill="#de9681" d="M3283.182,2393.998c-3.241-11.1-5.948-21.588-7.719-30.901
									c-9.577-50.347-13.667-166.042-26.404-214.819c-12.737-48.778-65.384-148.496-90.178-172.729
									c-11.061-6.593-46.321-7.841-96.77,18.352c-7.617,3.954-50.858,47.05-62.609,82.867
									c-11.751,35.817-4.679,140.595,2.215,179.425c6.615,37.254,37.11,148.385,46.793,201.782
									C3090.493,2447.676,3228.725,2413.299,3283.182,2393.998z"></path><path fill="#e5e0d8" d="M3028.636,2472.367c282.178-51.998,276.803-70.744,276.803-70.744
								s-15.692-148.817-38.619-236.617c-22.927-87.8-64.541-161.54-68.088-167.941c-11.89-21.455-43.155-39.188-43.155-39.188
								s-7.476,15.787-98.097,31.217c-1.515,0.258-6.05,5.243-6.05,5.243s-76.465,20.893-83.451,43.286
								c-6.985,22.393,18.397,224.499,28.841,273.903C3006.33,2356.507,3019.574,2452.901,3028.636,2472.367z"></path><g><path fill="#de9681" d="M3055.553,1669.387c0,0-66.261,5.613-86.42,69.537
									c-20.159,63.925-1.131,108.484,3.383,133.445c4.514,24.96,7.968,41.447,7.309,44.534
									c-0.659,3.087-1.754,11.244,3.009,12.519c0,0-3.609,7.234,2.676,9.543c0,0,1.547,4.848,1.974,14.041
									c0.427,9.192,7.275,25.499,25.659,24.646c18.384-0.854,73.582-28.127,85.272-45.706s26.557-36.807,50.276-64.353
									c31.107-36.125,34.46-99.011,13.633-143.28C3141.498,1680.042,3080.128,1664.626,3055.553,1669.387z"></path><path fill="#c97565" d="M3050.379,1965.011c0,0,0.875-0.419,0.876-0.419l-3.257-17.781
								c0,0-26.635,24.836-41.583,30.32c2.048,0.436,4.283,0.634,6.727,0.52C3020.958,1977.288,3035.428,1972.149,3050.379,1965.011
								z"></path><path fill="#de9681" d="M2969.013,1847.769c0,0,0.21,15.738-4.682,30.347c-4.892,14.609-7.445,19.615-3.773,21.915
									c3.672,2.301,8.653,1.04,11.454,1.831c2.8,0.791,6.07,0.976,8.11-0.382
									C2980.122,1901.481,2983.049,1876.736,2969.013,1847.769z"></path><g><path fill="#8c4949" d="M2958.471,1786.139c0,0-15.589-24.695-20.74-40.624c-5.77-17.845,3.811-44.351,14.912-55.207
								s33.1,1.099,45.887-2.736c12.788-3.835,48.3-28.873,95.78-20.673s76.223,42.23,80.326,60.094c0,0,16.749,39.578,12.73,81.483
								c-4.018,41.904-35.556,92.898-37.258,107.207c-1.702,14.309-3.219,19.766-4.596,19.83c-7.272,0.34-48.385,15.758-58.919,8.03
								c-15.884-11.652-32.613-44.922-38.293-63.137c-4.459-14.3-11.117-57.589-22.717-75.337
								c-11.6-17.748-21.331-21.795-21.331-21.795S2984.739,1794.56,2958.471,1786.139z"></path><path fill="#823e3e" d="M3004.251,1783.274c12.265-2.025,36.919-12.953,47.062-19.986
								c10.647-7.057,23.123-11.249,35.763-12.797c12.602-1.575,25.376-0.799,37.873,1.166c10.624,1.011,27.105,5.602,36.51,0.101
								c-4.96,5.166-18.331,4.081-25.175,4.013c-16.172-1.3-32.516-3.524-48.708-1.306c-12.185,1.475-24.04,5.199-34.618,11.469
								C3042.311,1772.579,3016.915,1782.88,3004.251,1783.274z"></path><path fill="#8c4949" d="M3025.114,1800.946c0,0,8.515,46.959,8.717,59.175c0,0,8.802,7.439,12.946-3.997
								c2.544-7.023,4.865-31.428,6.006-42.215C3053.924,1803.122,3025.114,1800.946,3025.114,1800.946z"></path></g><g><path fill="#de9681" d="M3036.238,1855.704c0,0,3.08-33.118,23.761-30.624c20.681,2.494,7.996,47.703,1.14,54.608
									C3054.282,1886.594,3034.082,1888.289,3036.238,1855.704z"></path><path fill="#c97565" d="M3060.105,1852.599c0.079-0.828-0.528-1.562-1.357-1.642
								c-3.295-0.313-6.197,1.283-8.307,3.002c1.174-5.009,3.337-9.612,7.152-9.93c0.829-0.069,1.445-0.797,1.376-1.626
								c-0.069-0.829-0.797-1.446-1.626-1.376c-11.101,0.927-11.169,22.968-11.166,23.906c0.001,0.648,0.412,1.199,0.987,1.411
								c0.163,0.06,0.34,0.092,0.523,0.092c0.832-0.002,1.504-0.678,1.503-1.51c-0.003-1.447,0.095-3.498,0.358-5.754
								c0.884-1.14,4.645-5.62,8.916-5.214C3059.291,1854.035,3060.026,1853.428,3060.105,1852.599z"></path></g></g><g><path fill="#d9ab91" d="M3155.577,1957.878c0,0-65.359,23.589-99.157,26.421c0,0-35.697,10.428-58.487,23.089
							c-22.79,12.661-44.319,22.795-50.964,40.201s25.009,230.113,32.605,276.326c7.597,46.213,0.633,311.463,0.633,311.463
							s141.171,17.725,223.469,5.064c82.297-12.661,149.115-41.149,149.115-41.149s-24.403-136.107-35.798-199.412
							c-11.395-63.306-40.516-238.029-53.177-289.939s-27.219-108.252-32.917-119.647s-32.806-28.487-45.208-29.754
							S3155.577,1957.878,3155.577,1957.878z"></path><path fill="#cc987a" d="M3042.826,2156.958l-79.238,59.674c6.522,46.705,13.05,89.426,15.986,107.283
							c0.711,4.327,1.294,10.576,1.768,18.347c9.651-16.897,19.948-36.423,27.242-54.243
							C3026.517,2244.21,3042.826,2156.958,3042.826,2156.958z"></path><path fill="#fff" d="M3043.729,1988.331c0,0,7.125-7.167,11.209-10.198c0,0,50.297-10.017,71.504-17.127
							c21.208-7.11,25.427-10.64,25.427-10.64s10.66,3.188,12.874,8.265C3164.744,1958.63,3096.49,1990.797,3043.729,1988.331z"></path></g><g><ellipse cx="2511.893" cy="1810.391" fill="#fff" opacity=".43" rx="229.053" ry="264.874" transform="rotate(-19.669 2511.717 1810.276)"></ellipse><path fill="#fff" d="M2700.29 1676.282c-17.207-28.016-38.42-52.153-62.265-71.634-9.703-.835-18.871-1.338-26.689-1.574l-96.398 467.621c28.75 2.553 57.914-.808 86.106-10.885 8.513-3.043 16.668-6.673 24.528-10.733L2700.29 1676.282zM2422.742 1560.97c-12.121 4.332-23.557 9.788-34.338 16.147l-72.893 353.598c20.881 38.441 49.076 70.399 81.447 94.099 1.84.377 3.682.742 5.528 1.072l95.5-476.479C2472.779 1548.491 2447.389 1552.161 2422.742 1560.97z" opacity=".43"></path><path fill="#293463" d="M2533.06,2089.602c-40.345,0-81.16-10.986-119.501-32.66
								c-61.34-34.676-109.037-92.705-134.305-163.398c-25.268-70.693-25.161-145.81,0.301-211.51
								c25.818-66.62,74.518-115.634,137.128-138.013c62.612-22.379,131.347-15.34,193.543,19.82
								c61.341,34.675,109.037,92.705,134.306,163.397c25.268,70.693,25.16,145.809-0.302,211.51
								c-25.818,66.62-74.519,115.634-137.129,138.014C2583.087,2085.345,2558.16,2089.602,2533.06,2089.602z M2490.648,1567.221
								c-21.022,0-41.835,3.545-61.848,10.699c-109.585,39.169-161.464,175.321-115.647,303.506
								c37.386,104.596,128.462,172.062,220.247,172.071c20.699,0.002,41.419-3.428,61.585-10.636
								c109.586-39.169,161.465-175.322,115.647-303.506c-22.357-62.552-64.308-113.754-118.121-144.175
								C2559.697,1576.63,2524.894,1567.221,2490.648,1567.221z"></path><path fill="#293463" d="M2708.19,2329.365c-6.996,0-13.649-4.104-16.566-10.946l-106.661-250.211
							c-3.898-9.145,0.355-19.719,9.5-23.617c9.149-3.899,19.719,0.355,23.617,9.5l106.661,250.211
							c3.898,9.145-0.355,19.719-9.5,23.617C2712.938,2328.9,2710.545,2329.365,2708.19,2329.365z"></path><g><path fill="#de9681" d="M2871.114,2349.118c-0.721-0.767-1.449-1.491-2.208-2.193
									c-85.954-85.33-174.663-176.045-174.663-176.045c-0.762-0.503-1.445-1.092-2.174-1.643
									c-10.229-7.732-24.789-5.708-32.521,4.521c-6.84,9.049-6.04,21.484,1.316,29.586
									c110.504,188.374,150.347,209.525,150.347,209.525c0.515,0.368,1.008,0.762,1.514,1.145
									c19.3,14.588,46.772,10.769,61.36-8.531C2887.143,2388.208,2885.451,2364.388,2871.114,2349.118z"></path><path fill="#de9681" d="M2668.412,2216.138c0,0-8.422-13.988-9.444-15.181c-1.022-1.192-39.797,1.519-43.033,1.519
											s-17.034-7.666-19.079-9.71s0-11.243,0-11.243s-8.006-7.155-9.028-8.177c-1.022-1.022,0-11.924,0-11.924
											s-3.237-4.259-3.918-6.303s1.192-14.139,1.192-14.139s-2.385-3.918-2.896-5.792c-0.511-1.874,2.385-12.605,2.896-13.968
											s16.933-12.426,16.933-12.426l7.72,18.01c0,0,7.201,1.06,12.482,1.912c4.178,0.674,18.527-0.171,24.339-0.553
											c1.222-0.081,2.002-1.333,1.542-2.468l-12.785-31.527c0,0,5.341,2.694,9.77,5.76s17.716,12.605,23.678,19.079
											s8.478,24.871,11.715,32.536s18.568,24.189,25.041,32.195C2712.01,2191.745,2695.156,2230.788,2668.412,2216.138z"></path><path fill="#d98f79" d="M2664.155,2145.077c-0.95-4.906-11.711-15.985-15.213-18.272
												c-0.176-0.115-0.42-0.219-0.698-0.316c-0.056,0.86-0.727,1.613-1.666,1.675c-5.812,0.382-20.161,1.227-24.339,0.553
												c-1.678-0.271-3.549-0.562-5.322-0.834c-1.439,2.908-0.649,10.692-0.298,13.993c0.417,3.919-1.842,9.533-1.534,10.52
												c0.307,0.987,2.699,4.552,2.902,8.407c0.202,3.855-1.944,10.072-2.102,11.18c-0.158,1.108,3.799,2.374,4.822,6.639
												c1.024,4.266-2.606,9.108-2.606,9.108s1.266,3.403,1.072,6.844c-0.146,2.594-2.395,6.246-3.493,7.886
												c0.09,0.009,0.179,0.017,0.257,0.017c3.237,0,42.011-2.712,43.033-1.519c0.013,0.015,0.033,0.042,0.049,0.062
												c0.419-5.936,2.011-13.827,2.011-16.393C2661.028,2181.524,2665.104,2149.984,2664.155,2145.077z"></path><path fill="#c97565" d="M2598.999,2110.862c0.241,0.788,0.406,1.571,0.327,2.088
												c-0.217,1.424-2.632,8.665-0.596,9.97s11.026,3.885,11.026,3.885l-7.72-18.01
												C2602.036,2108.795,2600.799,2109.628,2598.999,2110.862z"></path><g><path fill="#c97565" d="M2585.192 2140.861l6.467 3.937c1.749 1.014 4.555 2.862 6.333 3.676.328.104 1.036.189 1.624.273 4.45.397 8.714 1.435 12.767 3.5.13.064.099.28-.05.296-5.231.704-10.399-.04-15.283-1.861-2.068-1.168-4.401-3.219-6.259-4.661-1.942-1.625-3.889-3.233-5.778-4.918C2584.883 2140.99 2585.037 2140.762 2585.192 2140.861L2585.192 2140.861zM2587.898 2161.291c5.221 2.357 10.498 4.837 15.683 7.27 2.079.651 4.514.384 6.537 1.367 1.072.46 2.127 1.014 3.121 1.907.072.064.078.174.015.245-1.247.515-2.534.548-3.726.529-1.738.043-3.491-.788-5.076-1.428-1.151-.335-3.673-1.906-4.768-2.531-3.993-2.341-7.974-4.698-11.928-7.095C2587.606 2161.467 2587.727 2161.208 2587.898 2161.291L2587.898 2161.291zM2596.912 2181.385c4.354 1.144 8.632 2.539 12.953 3.778 2.6.688 4.822.952 7.435 2.417.083.047.111.152.064.234-.877.585-1.897.778-2.846.965-2.994.686-5.464-1.082-8.053-2.258-3.267-1.526-6.481-3.159-9.664-4.857C2596.651 2181.586 2596.742 2181.335 2596.912 2181.385L2596.912 2181.385zM2658.819 2200.965c-.532-2.267-.834-4.569-.836-6.908-.156-1.806-.044-3.771 1.285-5.214.447-.524.991-.97 1.639-1.201.113-.041.238.043.244.163.071 1.348.129 2.344.05 3.409-.03 1.041-.594 2.021-.831 3.101-.24 1.071-.464 2.166-.667 3.274-.231 1.108-.391 2.23-.583 3.361C2659.099 2201.109 2658.855 2201.124 2658.819 2200.965L2658.819 2200.965zM2615.083 2177.436c2.887-1.102 5.699-.625 8.177 1.192C2620.91 2180.924 2616.73 2180.23 2615.083 2177.436L2615.083 2177.436zM2613.21 2160.181c2.887-1.102 5.699-.625 8.177 1.192C2619.037 2163.67 2614.857 2162.975 2613.21 2160.181L2613.21 2160.181zM2610.995 2140.689c2.887-1.102 5.699-.625 8.177 1.192C2616.822 2144.177 2612.641 2143.483 2610.995 2140.689L2610.995 2140.689zM2616.617 2193.849c2.887-1.102 5.699-.625 8.177 1.192C2622.444 2197.338 2618.264 2196.644 2616.617 2193.849L2616.617 2193.849z"></path></g><g><path fill="#d9ab91" d="M2654.852,2230.138c0,0,6.612-58.373,55.99-59.665c0,0,165.861,146.374,178.205,191.848
									c12.345,45.474-36.084,73.91-66.471,66.814S2654.852,2230.138,2654.852,2230.138z"></path><path fill="#cc987a" d="M2816.205,2270.245c-5.231,14.834-14.735,49.184-8.908,79.516l36.058-50.868
									C2834.841,2289.537,2825.646,2279.875,2816.205,2270.245z"></path></g><g><path fill="#de9681" d="M3056.385,2096.77c1.095-31.674-23.695-58.239-55.369-59.334
								c-17.771-0.614-33.934,6.921-44.892,19.248c-0.038,0.041-53.239,57.221-150.54,297.294
								c-4.692,6.702-7.565,14.793-7.869,23.579c-0.836,24.179,18.087,44.457,42.266,45.292c8.689,0.301,16.875-1.951,23.835-6.081
								c0,0,30.433,7.897,185.287-293.923C3053.447,2115.109,3056.057,2106.248,3056.385,2096.77z"></path><path fill="#d9ab91" d="M2982.502,2022.349c0,0-23.376,8.817-47.875,38.8
								c-24.499,29.984-130.126,271.975-141.03,294.032c-10.904,22.058-7.105,59.208,28.979,73.953s71.655-21.34,83.781-38.432
								c12.126-17.093,153.435-253.804,161.121-285.482C3075.166,2073.542,3058.529,2000.739,2982.502,2022.349z"></path></g></g></g></g></g><g><rect width="38.688" height="431.805" x="3943.181" y="3057.585" fill="#c99e8b"></rect><path fill="#d1ab9b" d="M3983.429,3350.863h-41.808c-6.031,0-10.92-4.889-10.92-10.92v-132.911
								c0-6.031,4.889-10.92,10.92-10.92h41.808c6.031,0,10.92,4.889,10.92,10.92v132.911
								C3994.349,3345.974,3989.46,3350.863,3983.429,3350.863z"></path><path fill="#c99e8b" d="M4159.089,3168.452c2.498,0,4.743-1.74,5.286-4.282c0.624-2.923-1.239-5.797-4.161-6.421
							l-118.228-25.246l-56.896-57.508c-2.102-2.125-5.528-2.14-7.652-0.041c-2.124,2.102-2.142,5.528-0.041,7.652l58.032,58.656
							c0.741,0.749,1.686,1.266,2.716,1.485l119.807,25.583C4158.335,3168.413,4158.715,3168.452,4159.089,3168.452z"></path><g><path fill="#c99e8b" d="M4064.917,3474.142c45.143,0,89.544,12.232,127.939,35.975
								c6.984,4.319,13.982,9.138,20.855,14.512l-11.497,3.17c0,0-46.488-28.742-143.212-28.742c-24.743,0-167.206,0-191.949,0
								c-96.724,0-143.212,28.742-143.212,28.742l-11.497-3.17c6.873-5.374,13.871-10.193,20.856-14.512
								c38.395-23.743,82.796-35.975,127.939-35.975H4064.917z"></path><circle cx="3714.094" cy="3529.799" r="32.991" fill="#bf8d77"></circle><circle cx="4205.964" cy="3529.799" r="32.991" fill="#bf8d77"></circle><g><path fill="#c99e8b" d="M3943.043,3477.313c0,0-4.758,41.989,10.238,107.222h16.496
								c14.996-65.233,12.093-107.222,12.093-107.222H3943.043z"></path><circle cx="3961.529" cy="3588.283" r="32.991" fill="#bf8d77"></circle></g></g><g><path fill="#f2c4a5" d="M3877.921,2684.651c0,0-8.736,24.96-27.456,39.936c-18.72,14.976-182.306,58.828-201.026,71.308
						s0,204.742,0,204.742h29.952v-160.501c0,0,0.832-17.888,35.36-28.288s154.434-40.524,168.162-59.244
						C3882.913,2752.604,3874.177,2684.651,3877.921,2684.651z"></path><path fill="#ebb38d" d="M3647.407,3007.665c0,0,34.944,36.192,109.823,57.408
									c74.88,21.216,418.077,4.992,524.157-37.44c43.68-16.224,61.151-56.16,61.151-94.847s0-601.532,0-601.532
									s2.496-146.015,12.48-208.415c1.248-14.976-18.72-39.936-106.079-41.184c-72.603-1.037-235.711-0.35-288.746-0.089
									c-16.903,0.083-32.414,9.364-40.479,24.219c-3.399,6.261-6.719,14.105-9.605,23.918
									c-12.038,40.928-38.285,416.443-34.84,709.955c0.214,18.232-8.781,70.204-26.795,73.014
									c-54.045,8.432-165.253-9.243-191.083,10.129C3622.448,2949.01,3629.935,2985.201,3647.407,3007.665z"></path><path fill="#e6a981" d="M4305.099 2242.646c-135.228-4.111-272.242-4.144-407.469 0C4032.857 2246.79 4169.871 2246.757 4305.099 2242.646zM4303.712 2309.414c-136.701-4.111-275.206-4.144-411.907 0C4028.507 2313.558 4167.011 2313.525 4303.712 2309.414zM4304.128 2376.181c-138.083-4.111-277.984-4.144-416.067 0C4026.144 2380.325 4166.045 2380.292 4304.128 2376.181zM4304.267 2442.949c-139.372-4.111-280.577-4.144-419.949 0C4023.689 2447.093 4164.895 2447.06 4304.267 2442.949zM4304.406 2509.717c-140.385-4.111-282.615-4.144-423 0C4021.79 2513.861 4164.021 2513.828 4304.406 2509.717zM4303.851 2576.484c-140.961-4.111-283.773-4.144-424.733 0C4020.078 2580.628 4162.89 2580.595 4303.851 2576.484zM4304.267 2643.252c-141.807-4.111-285.475-4.144-427.281 0C4018.792 2647.396 4162.46 2647.363 4304.267 2643.252zM4304.128 2710.019c-142.02-4.111-285.903-4.144-427.923 0C4018.225 2714.163 4162.108 2714.13 4304.128 2710.019zM4304.128 2776.787c-142.296-4.111-286.459-4.144-428.755 0C4017.669 2780.931 4161.832 2780.898 4304.128 2776.787zM4303.99 2843.554c-142.181-4.111-286.227-4.144-428.408 0C4017.762 2847.698 4161.809 2847.665 4303.99 2843.554z"></path><g><path fill="#ebb38d" d="M3685.075,3073.219h617.837c21.922,0,39.694-17.771,39.694-39.694v-139.74h-630.97
									c-48.571,0-87.946,39.375-87.946,87.946v30.102C3623.69,3045.735,3651.173,3073.219,3685.075,3073.219z"></path><path fill="#f5be9a" d="M3711.636,2893.785h591.325c0,0-24.889,13.772-24.889,75.748
									c0,44.268-23.519,52.532-52.531,52.532h-600.986c-0.559-3.329-0.865-6.743-0.865-10.231v-30.102
									C3623.69,2933.159,3663.065,2893.785,3711.636,2893.785z"></path></g><path fill="#f2c4a5" d="M4327.471,2093.561c-6.808,20.06-24.631,85.531-23.62,218.972
							c1.248,164.735,0,760.685,0,760.685c21.367,0,38.688-17.321,38.688-38.688v-703.277c0,0,2.496-146.015,12.48-208.415
							C4355.735,2114.245,4349.457,2102.363,4327.471,2093.561z"></path><path fill="#f2c4a5" d="M4307.595,2705.651c0,0-8.736,24.96-27.456,39.936c-18.72,14.976-98.591,44.927-117.312,57.407
						c-17.506,11.671-2.27,240.156-0.221,270.372c0.123,1.814,1.629,3.213,3.447,3.213h23.27c1.909,0,3.456-1.547,3.456-3.456
						v-235.185c0,0,0.832-17.888,35.36-28.288c34.527-10.4,70.719-26.624,84.447-45.344
						C4312.587,2764.307,4308.302,2710.174,4307.595,2705.651z"></path></g><g><path fill="#e35f5d" d="M4067.879,2525.148c-12.65,0-23.145-4.162-31.47-12.501c-8.339-8.325-12.501-18.82-12.501-31.47
					c0-22.416,5.738-46.988,17.243-73.716c11.491-26.727,29.313-50.437,53.454-71.129c16.085-13.795,30.891-27.441,44.402-40.953
					c13.498-13.498,24.424-29.018,32.763-46.558c8.325-17.526,12.501-38.932,12.501-64.231c0-18.389-4.311-35.632-12.933-51.73
					c-8.621-16.085-20.84-29.165-36.642-39.229c-15.815-10.05-35.215-15.088-58.197-15.088c-28.169,0-51.447,5.173-69.836,15.519
					c-18.401,10.347-32.048,24.721-40.953,43.109c-8.918,18.401-13.363,39.956-13.363,64.662c0,12.65-4.028,23.145-12.07,31.47
					c-8.056,8.339-18.685,12.501-31.9,12.501c-12.649,0-23.145-4.162-31.47-12.501c-8.339-8.325-12.501-18.819-12.501-31.47
					c0-40.226,8.756-75.574,26.296-106.047c17.526-30.459,42.246-54.451,74.146-71.991c31.9-17.526,69.108-26.296,111.651-26.296
					c37.356,0,70.55,7.908,99.581,23.71c29.018,15.815,52.014,37.652,68.974,65.524c16.947,27.886,25.435,60.5,25.435,97.856
					c0,32.196-5.174,60.069-15.52,83.631c-10.346,23.575-24.438,44.698-42.246,63.369c-17.823,18.686-38.232,37.222-61.215,55.61
					c-14.953,12.07-25.299,27.737-31.038,46.988c-5.752,19.265-8.621,34.918-8.621,46.988c0,12.649-4.028,23.145-12.07,31.47
					C4091.723,2520.986,4081.094,2525.148,4067.879,2525.148z M4067.879,2684.65c-16.099,0-30.042-5.887-41.815-17.675
					c-11.788-11.773-17.675-25.717-17.675-41.815c0-16.664,5.887-30.89,17.675-42.677c11.773-11.774,25.717-17.675,41.815-17.675
					c16.664,0,30.89,5.9,42.677,17.675c11.774,11.787,17.675,26.013,17.675,42.677c0,16.099-5.9,30.042-17.675,41.815
					C4098.769,2678.764,4084.543,2684.65,4067.879,2684.65z"></path></g></g></g></svg>