<svg xmlns="http://www.w3.org/2000/svg" enable-background="new 0 0 500 500" viewBox="0 0 500 500" id="data-science"><g><ellipse cx="255.82" cy="398.92" fill="#f2f7fc" rx="205.53" ry="13.49"></ellipse><path fill="#e4e3ff" d="M421.23,339.66c-9.12,0.81-25.42-47.95-49.07-44.14c0,0,21.86-10.4,32.87-4.7
					C423.65,300.46,425.16,339.31,421.23,339.66z"></path><path fill="#bbb5f9" d="M422.63,373.18c-0.01,0-0.02,0-0.04,0c-0.31-0.02-0.54-0.29-0.52-0.59c0.01-0.18,1.14-18.66-2.32-37.52
						c-3.17-17.27-10.95-38.42-30.02-41.04c-0.31-0.04-0.52-0.32-0.48-0.63c0.04-0.31,0.32-0.52,0.63-0.48
						c8.74,1.2,15.93,6.18,21.38,14.8c4.32,6.84,7.55,15.98,9.6,27.16c3.48,18.99,2.34,37.59,2.33,37.77
						C423.17,372.95,422.92,373.18,422.63,373.18z"></path><path fill="#e4e3ff" d="M434.03,361.07c9.12,0.81,25.42-47.95,49.07-44.14c0,0-21.86-10.4-32.87-4.7
					C431.61,321.87,430.1,360.73,434.03,361.07z"></path><path fill="#bbb5f9" d="M432.64,394.6c-0.29,0-0.54-0.23-0.56-0.52c-0.01-0.19-1.15-18.78,2.33-37.77
						c2.05-11.18,5.28-20.32,9.6-27.16c5.44-8.62,12.63-13.6,21.38-14.8c0.31-0.04,0.59,0.17,0.63,0.48
						c0.04,0.31-0.17,0.59-0.48,0.63c-19.07,2.62-26.85,23.77-30.02,41.04c-3.46,18.86-2.33,37.33-2.32,37.52
						c0.02,0.31-0.21,0.57-0.52,0.59C432.66,394.6,432.65,394.6,432.64,394.6z"></path><path fill="#e4e3ff" d="M385.9,217.59c0,0,13.22,6.89,20.53,40.69c5.62,25.98,17.88,35.76,17.88,35.76s3.73-26.91-2.28-51.12
					c-5.17-20.81-18.86-29.33-36.87-25.7"></path><path fill="#bbb5f9" d="M426.73,371.32C426.73,371.32,426.72,371.32,426.73,371.32c-0.31,0-0.56-0.25-0.56-0.56
						c0-0.03,0-0.16,0.01-0.4c0.27-8.71,0.92-39.58-2-71.15c-1.81-19.57-4.66-35.74-8.47-48.06c-4.68-15.14-10.83-24.48-18.26-27.74
						c-0.28-0.12-0.41-0.45-0.29-0.74c0.12-0.28,0.45-0.41,0.74-0.29c7.74,3.4,14.09,12.97,18.88,28.43
						c3.83,12.39,6.7,28.64,8.51,48.29c2.93,31.64,2.27,62.57,2,71.29c-0.01,0.21-0.01,0.33-0.01,0.37
						C427.28,371.07,427.03,371.32,426.73,371.32z"></path><path fill="#e4e3ff" d="M470.66,241.05c0,0-13.22,6.89-20.53,40.69c-5.62,25.98-17.88,35.76-17.88,35.76s-3.73-26.91,2.28-51.12
					c5.17-20.81,18.86-29.33,36.87-25.7"></path><path fill="#bbb5f9" d="M429.83,394.78c-0.31,0-0.56-0.25-0.56-0.56l0,0c0-0.03,0-0.15-0.01-0.37c-0.27-8.72-0.92-39.65,2-71.29
						c1.82-19.65,4.68-35.89,8.51-48.29c4.78-15.47,11.14-25.03,18.88-28.43c0.28-0.12,0.61,0,0.74,0.29c0.12,0.28,0,0.61-0.29,0.74
						c-7.43,3.26-13.58,12.6-18.26,27.74c-3.81,12.32-6.66,28.49-8.47,48.06c-2.92,31.58-2.27,62.45-2,71.15
						c0.01,0.24,0.01,0.37,0.01,0.4C430.39,394.53,430.14,394.78,429.83,394.78z"></path><g><path fill="#e4e3ff" d="M438.18,398.79h-20.56c-1.32,0-2.43-1.01-2.54-2.33l-2.62-26.94h30.88l-2.62,26.94
					C440.61,397.77,439.5,398.79,438.18,398.79z"></path><path fill="#bbb5f9" d="M444.11,374.75h-32.43c-0.61,0-1.11-0.5-1.11-1.11v-3.02c0-0.61,0.5-1.11,1.11-1.11h32.43
					c0.61,0,1.11,0.5,1.11,1.11v3.02C445.22,374.25,444.72,374.75,444.11,374.75z"></path></g><g><path fill="#bbb5f9" d="M400.89,361.29H100.77c-4.67,0-8.45-3.78-8.45-8.45V178.35c0-4.67,3.78-8.45,8.45-8.45h300.13
					c4.67,0,8.45,3.78,8.45,8.45v174.49C409.34,357.51,405.56,361.29,400.89,361.29z"></path><rect width="305.49" height="165.45" x="98.08" y="176" fill="#262a41"></rect><rect width="303.11" height="163.07" x="98.08" y="178.38" fill="#7563fb"></rect><rect width="67.64" height="25.03" x="217.01" y="361.29" fill="#e4e3ff"></rect><path fill="#e4e3ff" d="M313.4,395.91H188.25v0c0-5.29,4.29-9.58,9.58-9.58h105.98C309.11,386.32,313.4,390.61,313.4,395.91
					L313.4,395.91z"></path><g><path fill="#f2f7fc" d="M250.83,307.86c-10.75,0-19.17-21.26-19.17-48.4c0-27.14,8.42-48.4,19.17-48.4
						c10.75,0,19.17,21.26,19.17,48.4C270,286.6,261.58,307.86,250.83,307.86z M250.83,212.46c-9.79,0-17.76,21.08-17.76,46.99
						c0,25.91,7.97,46.99,17.76,46.99c9.79,0,17.76-21.08,17.76-46.99C268.59,233.54,260.62,212.46,250.83,212.46z"></path><path fill="#f2f7fc" d="M250.83,278.62c-27.14,0-48.4-8.42-48.4-19.17c0-10.75,21.26-19.17,48.4-19.17
						c27.14,0,48.4,8.42,48.4,19.17C299.23,270.2,277.97,278.62,250.83,278.62z M250.83,241.7c-25.91,0-46.99,7.97-46.99,17.76
						c0,9.79,21.08,17.76,46.99,17.76c25.91,0,46.99-7.97,46.99-17.76C297.82,249.66,276.74,241.7,250.83,241.7z"></path><path fill="#f2f7fc" d="M224.14,296.36c-3.14,0-5.72-0.86-7.54-2.68c-3.71-3.71-3.53-10.77,0.5-19.89
						c3.94-8.91,11.1-18.82,20.17-27.89c9.07-9.07,18.97-16.23,27.89-20.17c9.12-4.03,16.18-4.21,19.89-0.5
						c3.71,3.71,3.53,10.77-0.5,19.89c-3.94,8.91-11.1,18.82-20.17,27.89l0,0C249.78,287.61,234.14,296.36,224.14,296.36z
						 M277.56,224c-3.26,0-7.29,1.01-11.83,3.02c-8.76,3.87-18.51,10.93-27.46,19.88c-8.95,8.95-16.01,18.7-19.88,27.46
						c-3.72,8.43-4.01,15.11-0.79,18.33c6.93,6.92,27.46-2.35,45.79-20.67c8.95-8.95,16.01-18.7,19.88-27.46
						c3.72-8.43,4.01-15.11,0.79-18.33C282.57,224.74,280.35,224,277.56,224z"></path><path fill="#f2f7fc" d="M224.14,296.36c-3.14,0-5.72-0.86-7.54-2.68c-3.71-3.71-3.53-10.77,0.5-19.89
						c3.94-8.91,11.1-18.82,20.17-27.89c9.07-9.07,18.97-16.23,27.89-20.17c9.12-4.03,16.18-4.21,19.89-0.5
						c3.71,3.71,3.53,10.77-0.5,19.89c-3.94,8.91-11.1,18.82-20.17,27.89l0,0C249.78,287.61,234.14,296.36,224.14,296.36z
						 M277.56,224c-3.26,0-7.29,1.01-11.83,3.02c-8.76,3.87-18.51,10.93-27.46,19.88c-8.95,8.95-16.01,18.7-19.88,27.46
						c-3.72,8.43-4.01,15.11-0.79,18.33c6.93,6.92,27.46-2.35,45.79-20.67c8.95-8.95,16.01-18.7,19.88-27.46
						c3.72-8.43,4.01-15.11,0.79-18.33C282.57,224.74,280.35,224,277.56,224z"></path><path fill="#f2f7fc" d="M277.51,296.36c-9.99,0-25.64-8.75-40.24-23.35l0,0c-9.07-9.07-16.23-18.97-20.17-27.89
						c-4.03-9.12-4.21-16.19-0.5-19.89c3.71-3.71,10.77-3.53,19.89,0.5c8.91,3.94,18.82,11.1,27.89,20.17
						c9.07,9.07,16.23,18.97,20.17,27.89c4.03,9.12,4.21,16.19,0.5,19.89C283.24,295.5,280.65,296.36,277.51,296.36z M238.27,272.01
						c18.32,18.32,38.86,27.59,45.79,20.67c3.22-3.22,2.93-9.9-0.79-18.33c-3.87-8.76-10.93-18.51-19.88-27.46
						c-8.95-8.95-18.7-16.01-27.46-19.88c-8.43-3.72-15.11-4.01-18.33-0.79c-3.22,3.22-2.93,9.9,0.79,18.33
						C222.26,253.31,229.32,263.06,238.27,272.01L238.27,272.01z"></path><path fill="#f2f7fc" d="M277.51,296.36c-9.99,0-25.64-8.75-40.24-23.35l0,0c-9.07-9.07-16.23-18.97-20.17-27.89
						c-4.03-9.12-4.21-16.19-0.5-19.89c3.71-3.71,10.77-3.53,19.89,0.5c8.91,3.94,18.82,11.1,27.89,20.17
						c9.07,9.07,16.23,18.97,20.17,27.89c4.03,9.12,4.21,16.19,0.5,19.89C283.24,295.5,280.65,296.36,277.51,296.36z M238.27,272.01
						c18.32,18.32,38.86,27.59,45.79,20.67c3.22-3.22,2.93-9.9-0.79-18.33c-3.87-8.76-10.93-18.51-19.88-27.46
						c-8.95-8.95-18.7-16.01-27.46-19.88c-8.43-3.72-15.11-4.01-18.33-0.79c-3.22,3.22-2.93,9.9,0.79,18.33
						C222.26,253.31,229.32,263.06,238.27,272.01L238.27,272.01z"></path><circle cx="249.98" cy="258.69" r="27.62" fill="#262a41"></circle><path fill="#f2f7fc" d="M250.83,278.62c-27.14,0-48.4-8.42-48.4-19.17h1.41c0,9.79,21.08,17.76,46.99,17.76
						c25.91,0,46.99-7.97,46.99-17.76h1.41C299.23,270.2,277.97,278.62,250.83,278.62z"></path><path fill="#f2f7fc" d="M277.58,296.34c-3.46,0-7.65-1.05-12.42-3.16c-8.91-3.94-18.82-11.1-27.89-20.17
						c-9.07-9.07-16.23-18.97-20.17-27.89c-4.03-9.12-4.21-16.19-0.5-19.89l1,1c-3.22,3.22-2.93,9.9,0.79,18.33
						c3.87,8.76,10.93,18.51,19.88,27.46c18.32,18.32,38.86,27.59,45.79,20.67l1,1C283.28,295.45,280.74,296.34,277.58,296.34z"></path><path fill="#f2f7fc" d="M250.83,307.86v-1.41c9.79,0,17.76-21.08,17.76-46.99c0-25.91-7.97-46.99-17.76-46.99v-1.41
						c10.75,0,19.17,21.26,19.17,48.4C270,286.6,261.58,307.86,250.83,307.86z"></path><path fill="#f2f7fc" d="M216.6,293.68c-3.71-3.71-3.53-10.77,0.5-19.89c3.94-8.91,11.1-18.82,20.17-27.89
						c9.07-9.07,18.97-16.23,27.89-20.17c9.12-4.03,16.18-4.21,19.89-0.5l-1,1c-3.22-3.22-9.9-2.93-18.33,0.79
						c-8.76,3.87-18.51,10.93-27.46,19.88c-8.95,8.95-16.01,18.7-19.88,27.46c-3.72,8.43-4.01,15.11-0.79,18.33L216.6,293.68z"></path></g></g><g><path fill="#e27876" d="M347.19,302.85c-2.01,0.38-3.54,2.03-4.08,3.99c-2.43,8.79-10.1,38.36-3.73,40.48
				c7.49,2.5,12.72-24.11,13.26-31.98C353.09,308.78,352.05,301.94,347.19,302.85z"></path><path fill="#fff" d="M346.94,301.7c0,0-4.07,2.14-5.83,10.43c-1.77,8.29-10,52.54-10,52.54s16.48,3.21,16.91,0.21
				C348.43,361.88,346.94,301.7,346.94,301.7z"></path><polygon fill="#e4e3ff" points="343.14 323.63 337.2 366.16 349.08 363.28" opacity=".5"></polygon><path fill="#e27876" d="M385.84 302.73c2.03-.21 3.97.94 5.05 2.66 4.84 7.73 20.63 33.88 15.14 37.73-6.46 4.53-19.08-19.47-21.84-26.86C381.88 310.09 380.93 303.24 385.84 302.73zM373.11 322.46c-1.32-.22-2.68.91-2.96 2.44-.22 1.22-.51 4.22-.49 6.32.05 5.2-.16 10.04 1.54 10.85 1.7.81 3.48-2.36 3.98-7.49.45-4.64 2.08-10.32.96-11.18C375.58 322.96 374.27 322.65 373.11 322.46z"></path><path fill="#0f1519" d="M408.89,366.7c0,0,0.32,6.79-15.94,17.23c-9.14,5.87-22.84,8.08-22.84,8.08l-30.98-11.23l-27.32-13.15
				l65.52-6.59l15.25,1.12L408.89,366.7z"></path><path fill="#1d262d" d="M340.46,366.81l10.68-1.1l15.66-0.56l1.96,0.22l4.88-1.97l11.57-1.19l3.24-0.33l0.03-0.78
				c0,0,0.08-1.43,0.19-3.85c0.08-1.66,0.19-3.77,0.3-6.2c0.25-5.71,0.54-13.14,0.7-20.4c0.25-10.82,0.23-21.27-0.58-25.06
				c-1.93-8.99-16.05-7.01-16.05-7.01h-0.03l-17.09,1.23c0,0-9.21-0.16-10.73,3.82C343.37,308.43,340.46,366.81,340.46,366.81z"></path><path fill="#fff" d="M364.96,329.25c0,0.51,0,1.06,0.01,1.65c0.17,8.74,0.59,30.24,0.79,37.51l22.68-6.53l0.03-0.78
				c0,0,0.08-1.43,0.19-3.85c0.08-1.66,0.19-3.77,0.3-6.2c0.25-5.71,0.54-13.14,0.7-20.4c0.25-10.82,0.23-21.27-0.58-25.06
				c-1.93-8.99-16.05-7.01-16.05-7.01h-0.03C373.01,298.6,365.05,314.24,364.96,329.25z"></path><path fill="#e4e3ff" d="M387.06,343.59c-0.59,7.26-1.88,15.14-1.95,19.37l3.34-1.07l0.03-0.78c0,0,0.08-1.43,0.19-3.85
				c0.08-1.66,0.19-3.77,0.3-6.2c0.25-5.71,0.54-13.14,0.7-20.4c-0.04-0.24-0.07-0.37-0.07-0.37l-5.52-7.33
				C384.31,323.44,388,332.14,387.06,343.59z" opacity=".5"></path><path fill="#e4e3ff" d="M368.26,362.15v1.8c0,0.84,0,1.64,0,1.64l5.38-2.2l15.04-6.14c0.08-1.66,0.19-3.77,0.3-6.2
				C382.3,354.45,368.26,361.84,368.26,362.15z" opacity=".5"></path><path fill="#e27876" d="M306.37,372.09c-10.35,13.25,65.97,26.95,82.79,26.77s-10.56-12.4-36.41-21.68
					C326.89,367.9,310.44,366.88,306.37,372.09z"></path><path fill="#1d262d" d="M379.09,387.4c0,0-28.09-12.79-48.03-17.88c-19.27-4.92-24.94-1.21-26.97,4.78
					c-2.03,5.98,12.74,13.16,30.95,16.93c18.21,3.77,41.38,7.04,41.38,7.04L379.09,387.4z"></path><path fill="#e27876" d="M405.95,363.08c12.4,11.35-60.59,37.51-77.2,40.13c-16.61,2.61,8.36-13.98,32.31-27.42
					C385.01,362.36,401.07,358.62,405.95,363.08z"></path><path fill="#1d262d" d="M336.77,390.24c0,0,25.58-17.27,44.4-25.6c18.19-8.05,24.4-5.32,27.39,0.24
					c3,5.56-10.38,15.09-27.71,21.83c-17.33,6.74-39.64,13.8-39.64,13.8L336.77,390.24z"></path><path fill="#e27876" d="M405.62,341.82c-0.11,1.75-1.19,3.28-2.69,4.19c-7.42,4.46-34.41,20.42-37.5,18.21
				c-3.58-2.56,34.29-27.36,36.43-26.42C403.53,338.53,405.79,339,405.62,341.82z"></path><path fill="#e27876" d="M368.54 360.38c0 0-3.23-1.14-6.5-.56-2.43.43-5.66 3.78-5.36 5.23.31 1.45 1.7 1.06 4.42-.45 2.83-1.57 2.46 1.21 5.17.61 2.71-.6 3.12-2.03 3.12-2.03M373.02 298.6c.55-.49-3.29-5.78-3.53-11.56-.24-5.78-.32-20.46-12.52-18.94-12.2 1.52-9.31 10.99-8.43 13.56s5.43 13.99 10.94 12.79c0 0-.13 4.31-3.45 5.43C356.03 299.88 366.06 304.86 373.02 298.6z"></path><path fill="#fff" d="M384.71 300.36c0 0 5.67 1.07 11.02 11.34 5.35 10.27 14.87 25.68 11.13 31.99-3.74 6.31-28.03 15.94-28.03 15.94l-3.96-5.35c0 0 20.54-14.55 20.54-14.98 0-.43-10.06-15.51-10.06-15.51L384.71 300.36zM350.27 330.42c.37-15.08 5.22-28.96 5.78-30.52l.1-.21-.23 0c-.38-.01-9.32-.12-10.86 3.91-1.82 4.75-4.63 60.82-4.75 63.2l-.01.17 10.85-1.12.14-.01-.01-.14c-.53-7.73-1.2-25.12-1.03-34.77C350.26 330.76 350.27 330.59 350.27 330.42z"></path><path fill="#2658d3" d="M364.96 329.25c0 .51 0 1.06.01 1.65l.07.2 6.34-7.23c0 0-1.52-2.81-1.52-4.17 0-1.36 3.53-4.41 3.85-5.21.32-.8-.7-15.89-.7-15.89S365.05 314.24 364.96 329.25zM355.79 299.78l-8.13 17.85-.02.05.85 2.46-1.17 2.46 2.94 9.01.02-1.2c.37-15.08 5.22-28.96 5.78-30.53L355.79 299.78z"></path><path fill="#262a41" d="M368.07,272.79c-0.31-0.75-0.65-1.49-1-2.22c-1.28-2.62-3.23-5.39-6.14-5.69c-2.32-0.24-4.44,1.18-6.58,2.12
				c-3.41,1.5-7.32,1.83-10.93,0.91c-1.55-0.39-3.13-1.02-4.7-0.72c-2.11,0.4-3.62,2.4-4.13,4.49c-0.8,3.24,0.47,6.9,3.09,8.96
				c2.6,2.04,6.44,2.41,9.41,0.94c2.06-1.02,4.3-2.06,6.58-2.48c1.13-0.21,2.5-0.28,3.49,0.37c0.98,0.64,1.53,1.69,2.07,2.7
				c0.49,0.93,1,2.52,2.04,2.99c1.02,0.46,0.89-1.21,0.83-1.76c-0.12-1.1-0.27-2.2-0.43-3.3c-0.08-0.59-0.47-1.96,0.14-2.41
				c0.09-0.07,0.21-0.09,0.32-0.1c1.04-0.12,2.09,0.47,2.78,1.22c1.67,1.8,0.91,4.5,1.44,6.67c0.36,1.5,1.43,4.41,3.49,3.96
				c0.97-0.22,0.96-1.68,0.97-2.44c0.02-1.35,0.14-2.71,0.08-4.06c-0.05-1.36-0.45-2.67-0.78-3.99
				C369.59,276.85,368.91,274.79,368.07,272.79z"></path><path fill="#7563fb" d="M387.04,391.53c0,0,3.73,4.39-2.14,7.21c0,0,11.32,3.13,15.05,1.78c3.94-1.42,4.3-4.77,4.02-6.59
				C403.66,392.02,396.51,390.03,387.04,391.53z"></path><path fill="#1d262d" d="M387.07,391.53c0,0,3.17,4.67-2.15,7.22c0,0,10.25,2.56,13.62,1.34c3.57-1.29,3.9-4.33,3.64-5.97
				C401.9,392.39,395.64,390.17,387.07,391.53z"></path><path fill="#7563fb" d="M331.07,394.45c0,0-3.45,5.4,3.66,7.47c0,0-12.09,5.8-16.52,4.99c-4.68-0.86-5.71-4.55-5.73-6.64
				C312.47,398.07,320.18,394.53,331.07,394.45z"></path><path fill="#1d262d" d="M331.07,394.45c0,0-3.02,5.51,3.66,7.45c0,0-11.4,5.29-15.57,4.53c-4.4-0.81-5.37-4.28-5.39-6.25
				C313.76,398.12,320.83,394.53,331.07,394.45z"></path><g><path fill="#fff" d="M310.24,340.54l10.25,26.75c0,0,27.9,2.22,28.09,2.44l-11.04-28.64
					C337.54,341.09,309.82,340.5,310.24,340.54z"></path><polygon fill="#7563fb" points="369.01 368.49 348.5 369.63 347.84 367.91 347.09 365.96 368.79 364.77 368.91 366.64"></polygon><path fill="#7563fb" d="M349.37,369.58l19.64-1.09l-0.1-1.86c-3.6,0.24-14.61,0.9-20.2,1.23l-10.14-26.68l-1.03-0.09l10.31,26.82
						c0,0-0.01,0-0.01,0l0.66,1.72l0.34-0.02L349.37,369.58L349.37,369.58z" opacity=".3"></path></g><g><ellipse cx="328.19" cy="354.37" fill="#7563fb" rx="1.82" ry="2.24" transform="rotate(-20.12 328.219 354.343)"></ellipse></g></g><g><path fill="#262a41" d="M174.41,226.09H34.47c-4.19,0-7.59-3.4-7.59-7.59v-55.11c0-4.19,3.4-7.59,7.59-7.59h139.95
				c4.19,0,7.59,3.4,7.59,7.59v55.11C182,222.69,178.6,226.09,174.41,226.09z"></path><rect width="9.5" height="16.2" x="41.56" y="201.28" fill="#e2b544"></rect><rect width="9.5" height="33.41" x="60.94" y="184.06" fill="#fff"></rect><rect width="9.5" height="24.15" x="80.31" y="193.33" fill="#e2b544"></rect><rect width="9.5" height="37.92" x="99.69" y="179.56" fill="#fff"></rect><rect width="9.5" height="47.63" x="119.07" y="169.84" fill="#e2b544"></rect><rect width="9.5" height="42" x="138.44" y="175.47" fill="#fff"></rect><rect width="9.5" height="29.76" x="157.82" y="187.72" fill="#e2b544"></rect></g><g><polygon fill="#e4e3ff" points="219.57 148.46 218.96 147.66 254.9 120.2 281.11 140.36 314.72 112.8 341.59 131.62 375.58 100.29 376.27 101.03 341.68 132.91 314.76 114.07 281.13 141.65 254.9 121.47"></polygon><circle cx="219.26" cy="148.06" r="4.03" fill="#bbb5f9"></circle><circle cx="254.56" cy="122.18" r="4.03" fill="#bbb5f9"></circle><circle cx="281.12" cy="141" r="4.03" fill="#bbb5f9"></circle><circle cx="314.74" cy="113.43" r="4.03" fill="#bbb5f9"></circle><circle cx="341.63" cy="132.26" r="4.03" fill="#bbb5f9"></circle><circle cx="375.93" cy="100.66" r="4.03" fill="#bbb5f9"></circle></g><g><path fill="#fff" d="M447.19,249.73H328.24c-2.78,0-5.03-2.25-5.03-5.03v-47.27c0-2.78,2.25-5.03,5.03-5.03h118.95
					c2.78,0,5.03,2.25,5.03,5.03v47.27C452.22,247.47,449.97,249.73,447.19,249.73z"></path><path fill="#7563fb" d="M452.22,201.84H323.21v-4.42c0-2.78,2.25-5.03,5.03-5.03h118.95c2.78,0,5.03,2.25,5.03,5.03V201.84z"></path><g><path fill="#e2b544" d="M339.73,235.96c-6.64-6.64-6.64-17.41,0-24.05c3.32-3.32,7.67-4.98,12.03-4.98v17.01L339.73,235.96z"></path><path fill="#e4e3ff" d="M345.83,240.3c3.36,1.71,7.17,2.22,10.8,1.55l-3.11-16.72l-12.03,12.03
						C342.8,238.46,344.27,239.52,345.83,240.3z"></path><path fill="#262a41" d="M353.54,225.13l3.11,16.72c3.27-0.6,6.39-2.17,8.91-4.69c2.85-2.85,4.48-6.46,4.88-10.18
						c0.54-4.95-1.09-10.08-4.88-13.88c-3.32-3.32-7.67-4.98-12.03-4.98V225.13z"></path></g><g><path fill="#e4e3ff" d="M389.61 218.62h-7.59c-.78 0-1.4-.63-1.4-1.4v0c0-.78.63-1.4 1.4-1.4h7.59c.78 0 1.4.63 1.4 1.4v0C391.01 218 390.38 218.62 389.61 218.62zM436.52 218.62h-41.3c-.78 0-1.4-.63-1.4-1.4v0c0-.78.63-1.4 1.4-1.4h41.3c.78 0 1.4.63 1.4 1.4v0C437.93 218 437.3 218.62 436.52 218.62zM400.85 225.94h-18.82c-.78 0-1.4-.63-1.4-1.4l0 0c0-.78.63-1.4 1.4-1.4h18.82c.78 0 1.4.63 1.4 1.4l0 0C402.25 225.31 401.62 225.94 400.85 225.94zM436.78 225.94h-30.32c-.78 0-1.4-.63-1.4-1.4l0 0c0-.78.63-1.4 1.4-1.4h30.32c.78 0 1.4.63 1.4 1.4l0 0C438.19 225.31 437.56 225.94 436.78 225.94z"></path><g><path fill="#e4e3ff" d="M410.83 233.25h-28.81c-.78 0-1.4-.63-1.4-1.4l0 0c0-.78.63-1.4 1.4-1.4h28.81c.78 0 1.4.63 1.4 1.4l0 0C412.23 232.62 411.6 233.25 410.83 233.25zM436.78 233.25h-20.33c-.78 0-1.4-.63-1.4-1.4l0 0c0-.78.63-1.4 1.4-1.4h20.33c.78 0 1.4.63 1.4 1.4l0 0C438.19 232.62 437.56 233.25 436.78 233.25z"></path></g></g></g><g><rect width="92.08" height="110.75" x="77.13" y="283.59" fill="#bbb5f9" transform="rotate(180 123.17 338.964)"></rect><path fill="#e4e3ff" d="M67.26,308.01h111.82c1.16,0,2.1-0.94,2.1-2.1v-21.54c0-1.16-0.94-2.1-2.1-2.1H67.26
							c-1.16,0-2.1,0.94-2.1,2.1v21.54C65.16,307.07,66.1,308.01,67.26,308.01z"></path><path fill="#7563fb" d="M100.26,302.82h45.82c1.3,0,2.35-1.05,2.35-2.35V289.8c0-1.3-1.05-2.35-2.35-2.35h-45.82
							c-1.3,0-2.35,1.05-2.35,2.35v10.67C97.91,301.77,98.96,302.82,100.26,302.82z"></path><path fill="#262a41" d="M90.98,290.67H74.75c-0.89,0-1.61-0.72-1.61-1.61l0,0c0-0.89,0.72-1.61,1.61-1.61h16.23
							c0.89,0,1.61,0.72,1.61,1.61l0,0C92.59,289.95,91.87,290.67,90.98,290.67z"></path><path fill="#bbb5f9" d="M90.98 296.18H74.75c-.89 0-1.61-.72-1.61-1.61v0c0-.89.72-1.61 1.61-1.61h16.23c.89 0 1.61.72 1.61 1.61v0C92.59 295.46 91.87 296.18 90.98 296.18zM166.89 290.64h-13.09c-.88 0-1.59-.71-1.59-1.59l0 0c0-.88.71-1.59 1.59-1.59h13.09c.88 0 1.59.71 1.59 1.59l0 0C168.48 289.93 167.77 290.64 166.89 290.64zM166.89 302.83h-13.09c-.88 0-1.59-.71-1.59-1.59v0c0-.88.71-1.59 1.59-1.59h13.09c.88 0 1.59.71 1.59 1.59v0C168.48 302.12 167.77 302.83 166.89 302.83z"></path><g><path fill="#262a41" d="M173.8 290.64h-.44c-.88 0-1.59-.71-1.59-1.59l0 0c0-.88.71-1.59 1.59-1.59h.44c.88 0 1.59.71 1.59 1.59l0 0C175.4 289.93 174.68 290.64 173.8 290.64zM173.8 302.83h-.44c-.88 0-1.59-.71-1.59-1.59v0c0-.88.71-1.59 1.59-1.59h.44c.88 0 1.59.71 1.59 1.59v0C175.4 302.12 174.68 302.83 173.8 302.83zM173.8 296.74h-.44c-.88 0-1.59-.71-1.59-1.59l0 0c0-.88.71-1.59 1.59-1.59h.44c.88 0 1.59.71 1.59 1.59l0 0C175.4 296.02 174.68 296.74 173.8 296.74z"></path></g><g><circle cx="89.99" cy="300.38" r="2.57" fill="#fff"></circle><circle cx="82.8" cy="300.38" r="2.57" fill="#fff"></circle><circle cx="75.62" cy="300.38" r="2.57" fill="#fff"></circle></g><g><path fill="#e4e3ff" d="M67.26,337.7h111.82c1.16,0,2.1-0.94,2.1-2.1v-21.54c0-1.16-0.94-2.1-2.1-2.1H67.26
							c-1.16,0-2.1,0.94-2.1,2.1v21.54C65.16,336.76,66.1,337.7,67.26,337.7z"></path><rect width="50.52" height="15.37" x="97.91" y="317.14" fill="#7563fb"></rect><path fill="#262a41" d="M90.98,320.36H74.75c-0.89,0-1.61-0.72-1.61-1.61v0c0-0.89,0.72-1.61,1.61-1.61h16.23
							c0.89,0,1.61,0.72,1.61,1.61v0C92.59,319.64,91.87,320.36,90.98,320.36z"></path><path fill="#bbb5f9" d="M90.98 325.87H74.75c-.89 0-1.61-.72-1.61-1.61l0 0c0-.89.72-1.61 1.61-1.61h16.23c.89 0 1.61.72 1.61 1.61l0 0C92.59 325.15 91.87 325.87 90.98 325.87zM166.89 320.33h-13.09c-.88 0-1.59-.71-1.59-1.59l0 0c0-.88.71-1.59 1.59-1.59h13.09c.88 0 1.59.71 1.59 1.59l0 0C168.48 319.62 167.77 320.33 166.89 320.33zM166.89 332.52h-13.09c-.88 0-1.59-.71-1.59-1.59l0 0c0-.88.71-1.59 1.59-1.59h13.09c.88 0 1.59.71 1.59 1.59l0 0C168.48 331.81 167.77 332.52 166.89 332.52z"></path><g><path fill="#262a41" d="M173.8 320.33h-.44c-.88 0-1.59-.71-1.59-1.59l0 0c0-.88.71-1.59 1.59-1.59h.44c.88 0 1.59.71 1.59 1.59l0 0C175.4 319.62 174.68 320.33 173.8 320.33zM173.8 332.52h-.44c-.88 0-1.59-.71-1.59-1.59l0 0c0-.88.71-1.59 1.59-1.59h.44c.88 0 1.59.71 1.59 1.59l0 0C175.4 331.81 174.68 332.52 173.8 332.52zM173.8 326.43h-.44c-.88 0-1.59-.71-1.59-1.59l0 0c0-.88.71-1.59 1.59-1.59h.44c.88 0 1.59.71 1.59 1.59l0 0C175.4 325.71 174.68 326.43 173.8 326.43z"></path></g><g><circle cx="89.99" cy="330.07" r="2.57" fill="#fff"></circle><circle cx="82.8" cy="330.07" r="2.57" fill="#fff"></circle><circle cx="75.62" cy="330.07" r="2.57" fill="#fff"></circle></g></g><g><path fill="#e4e3ff" d="M67.26,367.39h111.82c1.16,0,2.1-0.94,2.1-2.1v-21.54c0-1.16-0.94-2.1-2.1-2.1H67.26
							c-1.16,0-2.1,0.94-2.1,2.1v21.54C65.16,366.45,66.1,367.39,67.26,367.39z"></path><rect width="50.52" height="15.37" x="97.91" y="346.83" fill="#7563fb"></rect><path fill="#262a41" d="M90.98,350.05H74.75c-0.89,0-1.61-0.72-1.61-1.61l0,0c0-0.89,0.72-1.61,1.61-1.61h16.23
							c0.89,0,1.61,0.72,1.61,1.61l0,0C92.59,349.33,91.87,350.05,90.98,350.05z"></path><path fill="#bbb5f9" d="M90.98 355.56H74.75c-.89 0-1.61-.72-1.61-1.61l0 0c0-.89.72-1.61 1.61-1.61h16.23c.89 0 1.61.72 1.61 1.61l0 0C92.59 354.84 91.87 355.56 90.98 355.56zM166.89 350.02h-13.09c-.88 0-1.59-.71-1.59-1.59l0 0c0-.88.71-1.59 1.59-1.59h13.09c.88 0 1.59.71 1.59 1.59l0 0C168.48 349.31 167.77 350.02 166.89 350.02zM166.89 362.21h-13.09c-.88 0-1.59-.71-1.59-1.59l0 0c0-.88.71-1.59 1.59-1.59h13.09c.88 0 1.59.71 1.59 1.59l0 0C168.48 361.5 167.77 362.21 166.89 362.21z"></path><g><path fill="#262a41" d="M173.8 350.02h-.44c-.88 0-1.59-.71-1.59-1.59l0 0c0-.88.71-1.59 1.59-1.59h.44c.88 0 1.59.71 1.59 1.59l0 0C175.4 349.31 174.68 350.02 173.8 350.02zM173.8 362.21h-.44c-.88 0-1.59-.71-1.59-1.59l0 0c0-.88.71-1.59 1.59-1.59h.44c.88 0 1.59.71 1.59 1.59l0 0C175.4 361.5 174.68 362.21 173.8 362.21zM173.8 356.12h-.44c-.88 0-1.59-.71-1.59-1.59l0 0c0-.88.71-1.59 1.59-1.59h.44c.88 0 1.59.71 1.59 1.59l0 0C175.4 355.41 174.68 356.12 173.8 356.12z"></path></g><g><circle cx="89.99" cy="359.76" r="2.57" fill="#fff"></circle><circle cx="82.8" cy="359.76" r="2.57" fill="#fff"></circle><circle cx="75.62" cy="359.76" r="2.57" fill="#fff"></circle></g></g><g><path fill="#e4e3ff" d="M67.26,397.08h111.82c1.16,0,2.1-0.94,2.1-2.1v-21.54c0-1.16-0.94-2.1-2.1-2.1H67.26
							c-1.16,0-2.1,0.94-2.1,2.1v21.54C65.16,396.14,66.1,397.08,67.26,397.08z"></path><rect width="50.52" height="15.37" x="97.91" y="376.53" fill="#7563fb"></rect><path fill="#262a41" d="M90.98,379.74H74.75c-0.89,0-1.61-0.72-1.61-1.61l0,0c0-0.89,0.72-1.61,1.61-1.61h16.23
							c0.89,0,1.61,0.72,1.61,1.61l0,0C92.59,379.02,91.87,379.74,90.98,379.74z"></path><path fill="#bbb5f9" d="M90.98 385.25H74.75c-.89 0-1.61-.72-1.61-1.61l0 0c0-.89.72-1.61 1.61-1.61h16.23c.89 0 1.61.72 1.61 1.61l0 0C92.59 384.53 91.87 385.25 90.98 385.25zM166.89 379.71h-13.09c-.88 0-1.59-.71-1.59-1.59l0 0c0-.88.71-1.59 1.59-1.59h13.09c.88 0 1.59.71 1.59 1.59l0 0C168.48 379 167.77 379.71 166.89 379.71zM166.89 391.91h-13.09c-.88 0-1.59-.71-1.59-1.59l0 0c0-.88.71-1.59 1.59-1.59h13.09c.88 0 1.59.71 1.59 1.59l0 0C168.48 391.19 167.77 391.91 166.89 391.91z"></path><g><path fill="#262a41" d="M173.8 379.71h-.44c-.88 0-1.59-.71-1.59-1.59l0 0c0-.88.71-1.59 1.59-1.59h.44c.88 0 1.59.71 1.59 1.59l0 0C175.4 379 174.68 379.71 173.8 379.71zM173.8 391.91h-.44c-.88 0-1.59-.71-1.59-1.59l0 0c0-.88.71-1.59 1.59-1.59h.44c.88 0 1.59.71 1.59 1.59l0 0C175.4 391.19 174.68 391.91 173.8 391.91zM173.8 385.81h-.44c-.88 0-1.59-.71-1.59-1.59l0 0c0-.88.71-1.59 1.59-1.59h.44c.88 0 1.59.71 1.59 1.59l0 0C175.4 385.1 174.68 385.81 173.8 385.81z"></path></g><g><circle cx="89.99" cy="389.45" r="2.57" fill="#fff"></circle><circle cx="82.8" cy="389.45" r="2.57" fill="#fff"></circle><circle cx="75.62" cy="389.45" r="2.57" fill="#fff"></circle></g></g></g></g></svg>