<svg id="artwork" xmlns="http://www.w3.org/2000/svg" xmlns:xlink="http://www.w3.org/1999/xlink" viewBox="0 0 750 500"><defs><style>.cls-1{fill:none;}.cls-2{fill:#f3f9ff;}.cls-3{fill:#ffcb01;}.cls-4{fill:#fff;}.cls-5{fill:#1b90fb;}.cls-6{fill:#54dca5;}.cls-7{fill:#d8fded;}.cls-8{fill:#ffd125;}.cls-9{fill:#f0b701;}.cls-10{fill:#2ccd7f;}.cls-11{fill:#00ae71;}.cls-12{fill:#224380;}.cls-13{fill:#b8ddfe;}.cls-14{fill:#e5f3fc;}.cls-15{fill:#cee6fb;}.cls-16{clip-path:url(#clip-path);}.cls-17{fill:#e7f4fe;}.cls-18{fill:#e7f3ff;}.cls-19{fill:#b9dbff;}.cls-20{fill:#1eaf69;}.cls-21{fill:#efb080;}.cls-22{fill:#cb8f6a;}.cls-23,.cls-31{fill:#0b224e;}.cls-24{fill:#45d48f;}.cls-25{fill:#102b5e;}.cls-26{fill:#d0e5ff;}.cls-27{fill:#fcd200;}.cls-28{fill:#fde258;}.cls-29{fill:#355aa2;}.cls-30{fill:#359dfb;}.cls-31,.cls-33{fill-rule:evenodd;}.cls-32{fill:#f3b087;}.cls-33,.cls-35{fill:#09234b;}.cls-34{fill:#50a9fc;}.cls-36{fill:#0e2c5b;}</style><clipPath id="clip-path"><rect class="cls-1" x="222.5176" y="139.4815" width="302.4945" height="189.0591"/></clipPath></defs><g id="_09_startup_business_strategy" data-name="09 startup business strategy"><g id="cloud"><path class="cls-2" d="M504.2516,143.1962a12.48787,12.48787,0,0,1-12.4885-12.4849v-.0037a24.97689,24.97689,0,0,1,24.9771-24.9772c.2135,0,.4109.0572.6228.0625a31.024,31.024,0,0,1,46.6363-20.4776,31.115,31.115,0,0,1,58.2712,7.9891c.2127-.0046.4093-.0625.6228-.0625a31.221,31.221,0,0,1,31.2214,31.2214v.0086a18.72831,18.72831,0,0,1-18.7329,18.7243Z"/><path class="cls-2" d="M116.7603,214.1343c.637,0,1.2371.1312,1.8595.1872a31.1243,31.1243,0,0,1,58.9059,0c.6224-.056,1.2225-.1872,1.8596-.1872a20.875,20.875,0,0,1,0,41.75h-62.625a20.875,20.875,0,1,1,0-41.75Z"/></g><g id="plant"><path class="cls-3" d="M173.8289,180.6358a68.21506,68.21506,0,0,0,13.0195,3.8425c.4327.0838.8653.1678,1.3061.2318q2.4759.45435,4.9654.7043l.02.0082c.4689.0521.9662.0925,1.4433.1246,16.8517,1.4436,32.9922-3.1256,37.524-14.1811l.0082-.02.3581-1.0442c2.7335-8.1499-1.1628-18.0134-8.5303-26.8713l-.0199-.0082c-.4051-.4929-.8302-.994-1.2553-1.4952l-.0199-.0082a71.06748,71.06748,0,0,0-14.3608-12.1915l-1.1094-.7116-.02-.0082a68.47648,68.47648,0,0,0-10.0471-5.1692,56.882,56.882,0,0,0-7.0176-2.3628c-.3561-.0994-.7206-.1787-1.0851-.2581a39.55178,39.55178,0,0,0-5.0479-.9017c-.3608-.0311-.7135-.0822-1.0825-.0934a30.704,30.704,0,0,0-17.163,3.0759,10.32367,10.32367,0,0,0-1.024.5609,29.3552,29.3552,0,0,0-12.4333,14.4952l-.3979,1.0277a28.76441,28.76441,0,0,0-.4518,20.5275,9.90362,9.90362,0,0,0,.4202,1.0828,30.75892,30.75892,0,0,0,7.7715,10.8915c.2507.2431.5213.4941.8203.7334a41.2642,41.2642,0,0,0,6.5288,4.6376c.3152.1994.6387.3787.9622.5579A57.48835,57.48835,0,0,0,173.8289,180.6358Z"/><path class="cls-4" d="M167.6648,147.3089l-15.837,13.6836a9.89058,9.89058,0,0,1-.42-1.0828L166.59,146.7981c-6.7536-3.2354-11.8746-5.895-14.7305-7.4159l.398-1.0278c2.7359,1.4719,7.697,4.066,14.2505,7.2193v-.0001l-1.8172-21.7143a10.37471,10.37471,0,0,1,1.0238-.561l1.9283,22.8107h.0002c4.3398,2.0591,9.3276,4.3605,14.8126,6.7023l.422-32.5888c.369.0112.7216.0623,1.0825.0934l-.4329,32.958c1.3829.6136,2.8022,1.1954,4.2335,1.8055l1.2474-33.8618c.3643.0795.7288.1587,1.0851.2581l-1.2529,34.0462c6.2094,2.5687,12.9039,5.1495,19.9251,7.5605l-1.5876-34.0665,1.1094.7116,1.5826,33.7374h0c5.1726,1.7934,10.5027,3.4879,15.9063,5.0025a10.69156,10.69156,0,0,0,1.1289.3225c1.8413.5213,3.7108,1.0307,5.5683,1.512l-.3579,1.0442c-5.6812-1.4648-11.3085-3.1176-16.8103-4.9059l-20.7221,19.1069c-.477-.032-.9743-.0724-1.4432-.1245l20.993-19.3694v-.0001h0c-1.5684-.5029-3.0889-1.0094-4.6128-1.564l-.02-.0082h0L188.1545,184.71c-.4409-.0639-.8734-.1479-1.3061-.2317l21.4992-20.3763h.0002c-6.9931-2.423-13.6878-5.0037-19.8972-7.5723l-.02-.0082-20.5198,21.2914c-.3235-.1791-.6472-.3586-.9624-.5578l20.4027-21.1761.02.0083v-.0001l-.02-.0082c-1.4513-.6182-2.8706-1.2-4.2537-1.8137l-22.6776,18.3521c-.299-.2394-.5696-.4904-.8205-.7334l22.3866-18.0977c-5.285-2.2597-10.101-4.4674-14.3209-6.4774Z"/><path class="cls-5" d="M180.5074,134.3802l.4688.8858c1.1529,2.1374,2.4351,4.272,3.8024,6.3613.1703.2806.3575.5523.5449.8238a92.28351,92.28351,0,0,0,9.9704,12.4955c.2565.2786.5211.5312.7685.7928,10.2143,10.3604,22.1458,16.672,31.5994,11.9965a3.12075,3.12075,0,0,0,.3838-.1812c.1703-.0902.3578-.1894.519-.2966,9.5119-5.5132,13.9306-21.3928,12.9155-37.3626-.0099-.4309-.046-.8698-.0899-1.2826a61.91821,61.91821,0,0,0-4.6658-19.4894,6.76561,6.76561,0,0,0-.4366-.9901c-.3556-.8368-.7532-1.6294-1.1679-2.413-.3606-.6815-.7382-1.3538-1.1319-1.9742a8.3845,8.3845,0,0,0-.5109-.8417c-4.2952-6.7982-9.7944-10.8443-15.7629-12.8103a9.42978,9.42978,0,0,0-1.0249-.3298c-8.3241-2.4203-17.4204-.9431-25.3628,2.7147q-.4479.2043-.8958.4087c-.494.2614-.9971.5058-1.4911.7672-8.6029,4.5525-13.628,10.5915-14.3108,18.7375a7.67415,7.67415,0,0,0-.0633.993,28.1024,28.1024,0,0,0,.6479,7.1583c.0591.3176.1353.6263.2203.9519A56.33066,56.33066,0,0,0,180.5074,134.3802Z"/><path class="cls-4" d="M200.612,108.9134l-26.0466,4.472a7.68806,7.68806,0,0,1,.0635-.9928l25.428-4.363c-3.9877-6.5467-7.4555-11.864-9.6262-15.1418q.4479-.2043.8958-.4088c2.1887,3.3121,5.6476,8.6122,9.6082,15.1077l15.7547-17.8223a9.42776,9.42776,0,0,1,1.0248.3297l-16.2596,18.3515c3.4597,5.7139,7.2852,12.3248,10.9723,19.2923l21.0503-24.8334a8.381,8.381,0,0,1,.5108.8418l-21.0832,24.8944c.7209,1.3628,1.4343,2.7517,2.1474,4.1406l21.2355-24.6479a6.76538,6.76538,0,0,1,.4368.99l-21.2026,24.5869c2.4049,4.833,4.6996,9.7461,6.7256,14.6051l19.1426-19.7025c.0441.4127.0801.8517.0898,1.2826l-18.8306,19.3849a116.2747,116.2747,0,0,1,5.9154,17.9777c-.1614.1073-.3487.2064-.5191.2966a3.14808,3.14808,0,0,1-.3837.1812,111.50707,111.50707,0,0,0-5.8734-18.0218l-25.7262,6.0253c-.2474-.2615-.512-.5142-.7685-.7928l26.129-6.1293c-2.0261-4.8591-4.3126-9.7981-6.7528-14.6563l-29.3465,8.29c-.1874-.2715-.3747-.5432-.5448-.8237l29.4487-8.3441c-.7131-1.3889-1.4262-2.7778-2.1565-4.1577l-31.0946,6.1404-.469-.8856,31.0857-6.1576c-2.4249-4.5826-4.9239-9.0167-7.3301-13.1515l-28.8292,6.4245c-.085-.3256-.1613-.6343-.2203-.9519l28.5377-6.3573C202.6745,112.3576,201.6167,110.6059,200.612,108.9134Z"/><path class="cls-6" d="M189.4942,220.2713a43.49464,43.49464,0,0,0,16.6575,3.1133c.4585.0148.934-.0123,1.401-.0185a45.785,45.785,0,0,0,8.3013-1.0581l.021.0085c.5687-.1362,1.1163-.2807,1.6848-.4169,10.2446-2.7147,18.844-8.9082,22.3266-17.4947.1703-.42.3111-.8274.4519-1.2348a9.16758,9.16758,0,0,0,.3208-1.0923c2.5673-8.9822-.9-18.4562-7.888-26.3023l-.0211-.0085c-.3681-.4182-.7239-.8069-1.1005-1.2043l-.0211-.0085a52.983,52.983,0,0,0-15.7143-11.1651c-.3693-.1743-.7387-.3486-1.1166-.5018-.5707-.2805-1.1376-.5104-1.7255-.7488a48.47877,48.47877,0,0,0-9.7885-2.8699c-.3614-.0732-.7229-.1466-1.0928-.1987a35.92038,35.92038,0,0,0-11.5901-.0558q-.57465.06045-1.1746.1837a28.51441,28.51441,0,0,0-7.2268,2.4475c-.3921.1831-.7718.3959-1.1514.6087a26.69272,26.69272,0,0,0-11.7018,13.5407,5.536,5.536,0,0,0-.2089.5754c-.1447.3569-.2895.7137-.4047,1.0582a32.95106,32.95106,0,0,0-1.214,16.2543c.0737.421.1475.8421.2421,1.2716a34.00829,34.00829,0,0,0,2.9636,8.3651c.1708.3627.35.7044.5503,1.0545a34.517,34.517,0,0,0,9.3884,10.8488,9.70475,9.70475,0,0,0,.897.6816A37.34029,37.34029,0,0,0,189.4942,220.2713Z"/><path class="cls-7" d="M181.41,183.1812v.0001l-13.6495,11.7729c-.0947-.4294-.1684-.8506-.242-1.2716l12.7748-11.0031c-4.2317-1.863-8.1314-3.6403-11.5608-5.2513.1151-.3443.26-.7012.4048-1.0582,3.4502,1.6195,7.371,3.4053,11.6237,5.2768l.2869-19.3928c.3795-.2128.7592-.4257,1.1513-.6087l-.3425,20.4948c1.759.7867,3.6104,1.5865,5.4827,2.3949v-.0001l2.0865-25.3371q.6003-.12345,1.1748-.1836l-2.1485,25.972v.0001h0c4.1858,1.7955,8.5737,3.5751,13.0289,5.3088l.7095-31.2252c.37.0521.7315.1255,1.0928.1987l-.6811,31.4567v.0001h0c3.7836,1.4612,7.6345,2.8764,11.4357,4.1736v-.0001l.7595-32.0117c.3779.1533.7473.3276,1.1167.5019l-.7591,31.8896c5.5863,1.899,11.1148,3.5789,16.3292,4.8872.3739.1027.7564.1845,1.139.2662,2.7773.6865,5.4631,1.2379,8.0357,1.6457l-.3206,1.0923c-2.5937-.4163-5.3215-.9847-8.1284-1.6587l-.0211-.0085c-.3949-.1113-.7774-.193-1.1808-.2835-1.9916-.5143-4.0168-1.0667-6.0965-1.6657l-17.3589,23.8125c-.4669.006-.9425.0331-1.4011.0184l17.6259-24.1687h0c-7.0327-2.0699-14.3699-4.6547-21.559-7.4238h0l-20.6588,24.112a9.69927,9.69927,0,0,1-.897-.6815l20.4347-23.8608c-4.4765-1.7422-8.8852-3.5303-13.0918-5.3343h-.0002l-16.731,18.3463c-.2003-.3501-.3795-.6919-.5503-1.0545l16.1686-17.743h0C185.0204,184.7679,183.1898,183.9766,181.41,183.1812Z"/></g><g id="plant-2" data-name="plant"><path class="cls-8" d="M596.6423,334.9971H536.1036s-.5405,34.0638,30.2694,34.0638S596.6423,334.9971,596.6423,334.9971Z"/><ellipse class="cls-9" cx="566.37297" cy="334.99713" rx="30.26938" ry="9.72948"/><path class="cls-10" d="M566.373,338.5041s-23.0092-37.7445-14.4612-69.7711C551.9118,268.733,567.972,298.1135,566.373,338.5041Z"/><path class="cls-10" d="M566.373,338.5041s2.0309-44.1582,27.0266-65.9295C593.3996,272.5746,590.2847,305.913,566.373,338.5041Z"/><path class="cls-11" d="M566.373,342.6611s-10.2194-43.0074,7.807-70.825C574.18,271.8361,580.3751,304.7415,566.373,342.6611Z"/></g><g id="laptop"><path class="cls-12" d="M543.918,345.871V141.057c0-11.3115-8.4645-20.4814-18.9059-20.4814H222.5176c-10.4415,0-18.9059,9.1699-18.9059,20.4814V345.871Z"/><rect class="cls-13" x="222.5176" y="139.4815" width="302.4945" height="189.0591"/><polygon class="cls-14" points="203.021 345.871 155.559 409.616 591.97 409.616 543.327 345.871 203.021 345.871"/><path class="cls-15" d="M155.5591,409.616H591.9705a0,0,0,0,1,0,0v17.1193a5,5,0,0,1-5,5H160.5591a5,5,0,0,1-5-5V409.616A0,0,0,0,1,155.5591,409.616Z"/><polygon class="cls-12" points="254.849 358.306 233.664 358.306 239.02 351.385 259.395 351.385 254.849 358.306"/><polygon class="cls-12" points="287.226 358.306 266.041 358.306 270.159 351.385 290.534 351.385 287.226 358.306"/><polygon class="cls-12" points="319.603 358.306 298.418 358.306 301.298 351.385 321.674 351.385 319.603 358.306"/><polygon class="cls-12" points="351.98 358.306 330.795 358.306 332.438 351.385 352.813 351.385 351.98 358.306"/><polygon class="cls-12" points="384.357 358.306 363.172 358.306 363.577 351.385 383.952 351.385 384.357 358.306"/><polygon class="cls-12" points="416.734 358.306 395.549 358.306 394.717 351.385 415.092 351.385 416.734 358.306"/><polygon class="cls-12" points="449.112 358.306 427.926 358.306 425.856 351.385 446.231 351.385 449.112 358.306"/><polygon class="cls-12" points="481.489 358.306 460.304 358.306 456.995 351.385 477.37 351.385 481.489 358.306"/><polygon class="cls-12" points="513.866 358.306 492.681 358.306 488.135 351.385 508.51 351.385 513.866 358.306"/><polygon class="cls-12" points="247.41 369.63 224.9 369.63 230.932 361.835 252.53 361.835 247.41 369.63"/><polygon class="cls-12" points="281.813 369.63 259.302 369.63 263.941 361.835 285.539 361.835 281.813 369.63"/><polygon class="cls-12" points="316.215 369.63 293.705 369.63 296.949 361.835 318.547 361.835 316.215 369.63"/><polygon class="cls-12" points="350.618 369.63 328.107 369.63 329.957 361.835 351.556 361.835 350.618 369.63"/><polygon class="cls-12" points="385.02 369.63 362.51 369.63 362.966 361.835 384.564 361.835 385.02 369.63"/><polygon class="cls-12" points="419.422 369.63 396.912 369.63 395.974 361.835 417.572 361.835 419.422 369.63"/><polygon class="cls-12" points="453.825 369.63 431.315 369.63 428.983 361.835 450.581 361.835 453.825 369.63"/><polygon class="cls-12" points="488.227 369.63 465.717 369.63 461.991 361.835 483.589 361.835 488.227 369.63"/><polygon class="cls-12" points="522.63 369.63 500.12 369.63 494.999 361.835 516.597 361.835 522.63 369.63"/><polygon class="cls-12" points="238.978 382.466 214.966 382.466 221.812 373.62 244.789 373.62 238.978 382.466"/><polygon class="cls-12" points="275.676 382.466 251.664 382.466 256.928 373.62 279.905 373.62 275.676 382.466"/><polygon class="cls-12" points="312.375 382.466 288.362 382.466 292.044 373.62 315.021 373.62 312.375 382.466"/><polygon class="cls-12" points="349.073 382.466 325.06 382.466 327.16 373.62 350.137 373.62 349.073 382.466"/><polygon class="cls-12" points="385.771 382.466 361.759 382.466 362.276 373.62 385.253 373.62 385.771 382.466"/><polygon class="cls-12" points="422.469 382.466 398.457 382.466 397.392 373.62 420.37 373.62 422.469 382.466"/><polygon class="cls-12" points="459.167 382.466 435.155 382.466 432.508 373.62 455.486 373.62 459.167 382.466"/><polygon class="cls-12" points="495.865 382.466 471.853 382.466 467.624 373.62 490.602 373.62 495.865 382.466"/><polygon class="cls-12" points="532.564 382.466 508.551 382.466 502.74 373.62 525.718 373.62 532.564 382.466"/><polygon class="cls-12" points="229.341 397.137 203.612 397.137 211.448 387.012 235.992 387.012 229.341 397.137"/><polygon class="cls-12" points="268.663 397.137 242.934 397.137 248.959 387.012 273.503 387.012 268.663 397.137"/><polygon class="cls-12" points="465.274 397.137 282.256 397.137 286.47 387.012 461.06 387.012 465.274 397.137"/><polygon class="cls-12" points="504.596 397.137 478.867 397.137 474.026 387.012 498.571 387.012 504.596 397.137"/><polygon class="cls-12" points="543.918 397.137 518.189 397.137 511.538 387.012 536.082 387.012 543.918 397.137"/><g class="cls-16"><path class="cls-2" d="M488.2273,318.9787a9.91849,9.91849,0,0,0-6.401,2.3327,18.8001,18.8001,0,0,0-28.4936.0987,31.02282,31.02282,0,0,0-34.1662-2.6831l-2.4207-.358a31.03072,31.03072,0,0,0-53.3316-19.5535,28.4643,28.4643,0,0,0-10.6562-12.2284,35.611,35.611,0,0,0-40.8824-46.2312,25.38007,25.38007,0,0,0-29.9627-15.0256,35.52721,35.52721,0,0,0-48.3866-29.8499c.0845-1,.1377-2.009.1377-3.0307a35.53555,35.53555,0,1,0-71.0711,0v181.17h257.722a31.0436,31.0436,0,0,0,44.2988-21.3653,18.67583,18.67583,0,0,0,21.1836-13.6595,9.95915,9.95915,0,1,0,2.43-19.6162Z"/><path class="cls-2" d="M432.8546,215.6362S331.7068,264.9227,287.948,254.4144s34.2659,56.2411,34.2659,56.2411,67.3009-68.0178,114.2038-85.3266C459.572,216.784,432.8546,215.6362,432.8546,215.6362Z"/><circle class="cls-17" cx="335.4033" cy="328.5406" r="14.734"/><circle class="cls-17" cx="303.06507" cy="324.45152" r="23.02529" transform="translate(-140.65617 309.32902) rotate(-45)"/><circle class="cls-17" cx="310.7805" cy="335.34438" r="14.56322" transform="translate(-70.01531 588.3956) rotate(-80.78251)"/><circle class="cls-17" cx="292.28978" cy="344.3052" r="10.54029"/><circle class="cls-17" cx="376.2543" cy="336.88952" r="14.49571" transform="translate(-100.28132 169.63028) rotate(-22.49998)"/><circle class="cls-17" cx="352.813" cy="328.5406" r="14.4957"/><circle class="cls-17" cx="397.3923" cy="330.20867" r="14.49562" transform="translate(7.79218 669.57596) rotate(-80.78251)"/><circle class="cls-17" cx="228.26758" cy="272.90548" r="22.74312" transform="translate(-89.78262 432.36569) rotate(-76.71745)"/><circle class="cls-17" cx="243.7151" cy="308.0856" r="28.9233"/><circle class="cls-17" cx="271.2726" cy="320.12783" r="14.49571" transform="translate(-101.85813 128.17965) rotate(-22.49997)"/><circle class="cls-17" cx="226.8776" cy="247.0673" r="13.0562"/><circle class="cls-17" cx="212.8306" cy="255.43" r="13.0562"/></g></g><g id="man_riding_rocket" data-name="man riding rocket"><path class="cls-18" d="M480.6023,108.8374s10.2382-.8258,14.7608-.3754,11.829,41.7483,11.829,41.7483l-20.4047-.914S480.6547,112.5816,480.6023,108.8374Z"/><polygon class="cls-19" points="493.672 107.809 492.008 107.538 493.733 109.988 493.672 107.809"/><path class="cls-20" d="M501.3057,111.8298s9.0757,13.7503,13.7671,19.2681c5.7813,6.7996,20.6091,9.2618,20.6091,9.2618l-3.8672,6.051s-21.4187-2.5216-24.15-6.7526S498.6013,115.6794,501.3057,111.8298Z"/><path class="cls-21" d="M457.0352,76.7825c.8715-1.7064.1481-3.7436-.7561-5.2933-.8846-1.5159-5.1738-1.022-7.2491-.266-2.9792,1.0853-2.3871,3.714-.1073,5.7894a26.37872,26.37872,0,0,1,4.0324,4.2669l4.4553-.6722A3.40028,3.40028,0,0,1,457.0352,76.7825Z"/><path class="cls-21" d="M496.5209,89.9128c1.4142,2.1186.683,3.3486,1.0243,4.2546s1.6719,2.7023,1.7148,3.5838-1.2946,1.0703-1.6022,2.2413.4246,2.639-.597,3.9015-4.906,1.1802-4.6961,2.3378,2.5462,5.1146,2.5462,5.1146c-1.8687,1.2535-6.5413.7345-11.0362.3278,0,0,.8555-5.6818.0853-8.252s-2.4144-12.072.9246-13.4039S495.0196,87.6635,496.5209,89.9128Z"/><path class="cls-22" d="M492.3629,106.2343a5.12036,5.12036,0,0,0,.3405.9819,4.22917,4.22917,0,0,1-1.7764-2.9715,7.99994,7.99994,0,0,0,5.4845.1454l-.0061.0078C494.9338,105.1639,492.1927,105.2542,492.3629,106.2343Z"/><path class="cls-23" d="M485.4992,104.9999c1.1201-.7415-2.1425-6.9347.1531-7.8903,1.7878-.7442,2.906,2.7751,4.6629,1.4824s-2.0721-5.0125,5.1479-6.7652c3.1975-.7761,5.4405-5.7078,3.234-7.6199-4.7456-4.1124-18.7504,1.33-19.5644,8.1352C478.2607,99.6309,484.3791,105.7415,485.4992,104.9999Z"/><path class="cls-24" d="M494.6353,108.4042s6.2375,10.3489,7.8162,20.9686,2.6989,22.517,2.6989,22.517,7.3598-1.0778,9.0093-2.9605-10.0189-34.8744-12.854-37.0995C497.4164,108.7774,494.6353,108.4042,494.6353,108.4042Z"/><path class="cls-25" d="M494.8288,112.9934l-.6825,1.0846-.2085.3311a.86272.86272,0,0,1-1.0831.333l-.138-.0649-1.5423-.6853.0115-1.0443,2.9557-.8595Z"/><polygon class="cls-26" points="484.303 107.61 491.943 112.18 490.763 116.226 481.279 110.115 484.303 107.61"/><polygon class="cls-26" points="495.955 114.59 495.866 108.656 493.672 107.809 493.536 111.642 495.955 114.59"/><g id="rocket"><path class="cls-27" d="M448.8978,224.1682c-9.6102,4.989-31.0311,4.0929-31.0311,4.0929s11.5931-18.0349,21.2034-23.0239,19.6008-4.7956,22.3147.4321S458.508,219.1792,448.8978,224.1682Z"/><path class="cls-28" d="M445.6252,221.6259c-6.2182,3.2281-20.0786,2.6482-20.0786,2.6482s7.5013-11.6694,13.7196-14.8975,12.6826-3.1029,14.4386.2796S451.8434,218.3978,445.6252,221.6259Z"/><path class="cls-29" d="M456.1517,208.2422c-3.8545-7.4249-8.0139-10.4348-8.0139-10.4348l-4.091,3.8305s3.4615,1.6655,7.316,9.0904,3.2249,11.2143,3.2249,11.2143l5.4868-1.1418S460.0062,215.6672,456.1517,208.2422Z"/><path class="cls-30" d="M479.8983,169.2326s-27.9255-9.7386-44.0584-1.3634c-6.9441,3.605-14.2213,9.4144-18.9266,13.48a1.66341,1.66341,0,0,0,1.4506,2.8815c10.6554-2.4032,31.1869-5.0734,37.898,7.8541Z"/><path class="cls-30" d="M501.7203,211.2679s-8.1041,28.4428-24.2371,36.818c-6.9441,3.6049-15.8828,6.2137-21.9154,7.7226a1.66345,1.66345,0,0,1-1.522-2.8445c8.0968-7.3317,22.0949-22.5871,15.3838-35.5146Z"/><path class="cls-29" d="M566.2467,174.9163l-19.4863-37.536a159.45192,159.45192,0,0,1,35.5334,1.7474,4.0203,4.0203,0,0,1,2.9704,5.7218A159.45124,159.45124,0,0,1,566.2467,174.9163Z"/><path class="cls-18" d="M529.9526,204.0665c-34.417,17.8671-71.267,18.1071-71.267,18.1071s.745-4.4829-3.8139-13.2646c-4.5617-8.7871-8.6567-10.7574-8.6567-10.7574s21.4033-29.9945,55.8203-47.8616c10.8467-5.6309,28.1841-11.2384,39.4718-12.4559l21.3456,41.1175C555.3617,187.4828,540.7993,198.4356,529.9526,204.0665Z"/><path class="cls-30" d="M491.3832,191.7796a1.66439,1.66439,0,0,0-1.4944-2.8788c-8.0242,2.0754-21.5004,5.9345-30.1069,10.4024-8.6155,4.4726-18.8611,12.935-24.7214,18.0675a1.66424,1.66424,0,0,0,1.4892,2.8684c7.5697-1.8395,20.3863-5.3495,29.0017-9.8221C474.1579,205.9491,485.0686,197.148,491.3832,191.7796Z"/><path class="cls-30" d="M537.5382,180.5557a12.9261,12.9261,0,1,1,5.5166-17.428A12.926,12.926,0,0,1,537.5382,180.5557Z"/><circle class="cls-29" cx="531.58252" cy="169.08343" r="9.03002" transform="translate(-14.34023 54.46438) rotate(-5.7873)"/><path class="cls-30" d="M562.8527,178.9516l-21.3456-41.1175c.4789-.0507.9578-.1013,1.4313-.1492.9499-.0903,1.8971-.1724,2.8393-.2382.3275-.0267.6578-.048.9827-.0664l19.4863,37.536c-.2021.2551-.4096.513-.6198.7655-.5959.7327-1.2082,1.4601-1.8286,2.185C563.4867,178.2265,563.1697,178.5891,562.8527,178.9516Z"/></g><path class="cls-31" d="M504.063,204.5487a16.2517,16.2517,0,0,1-.4351-5.1143l-5.3587-4.2935s-5.7661,5.4474-5.1276,7.7272l3.098,2.4822a.65531.65531,0,0,0,.9212-.1017l.3875-.4836s.4874,2.2652,1.51,3.0845,7.5762,6.0507,7.5762,6.0507a1.30994,1.30994,0,0,0,2.0802.0227C510.1173,212.1723,504.7547,207.443,504.063,204.5487Z"/><path class="cls-25" d="M482.5405,149.1061s13.307-1.3545,20.774.5347c.1891,1.6327-.3303,2.3991.4162,2.606a52.63278,52.63278,0,0,1,9.0556,3.3206c11.0585,5.1253,17.5905,8.2577,19.7132,12.9277,1.8955,4.1702-22.0911,26.485-27.8155,31.2238a1.60586,1.60586,0,0,1-2.1109-.0385l-4.4544-3.9494a1.82529,1.82529,0,0,1-.0159-2.686c4.5553-4.139,15.2852-16.4544,14.7964-18.3815,0,0-20.9822-.3435-29.3441-6.7505C476.4223,162.4477,473.0992,152.6597,482.5405,149.1061Z"/><path class="cls-24" d="M481.8309,108.8924c-3.1082-.7677-12.1155-6.3388-14.7667-9.3923s-9.095-20.9702-9.095-20.9702l-6.3817,2.4268s6.1216,24.2874,8.6395,27.0415,14.5329,12.9769,15.3591,14.1878c2.0812,12.3215-3.561,30.3622-8.0769,36.1762,4.2468.1902,19.6197-4.4038,24.9595-2.4038,0,0,2.0767-17.4226,1.5094-23.9486C492.6869,117.1558,486.9106,110.1471,481.8309,108.8924Z"/><path class="cls-23" d="M493.1638,132.347c-2.9047,5.8803-15.3511,17.0854-15.3511,17.0854l-4.1533-.8376.9824-4.1116a139.30417,139.30417,0,0,0,12.7646-11.8893c4.6295-5.1967,5.3482-15.3558,5.3103-17.9167l.138.0649a.86272.86272,0,0,0,1.0831-.333l.2085-.3311C494.5218,116.9651,495.6488,127.3166,493.1638,132.347Z"/></g><g id="man_holding_paper" data-name="man holding paper"><path class="cls-32" d="M193.063,242.3875c3.0137-.3966,5.6995,1.5198,5.6995,3.863a6.43925,6.43925,0,0,0,.19,2.5964c.2607.7795,1.3544,1.7873,1.345,2.8498s-1.5983.8233-1.4717,1.7732.76,2.9131.3167,3.673-5.3829-.1266-5.5096,1.6466a36.74839,36.74839,0,0,0,.7719,6.2373l-10.2711-1.8677s-.8885-16.4209,0-17.6686C185.6219,243.4007,190.6565,242.7041,193.063,242.3875Z"/><path class="cls-33" d="M173.7318,388.0766s-1.9733,8.4501-.0147,10.1447l4.3246.395a.71681.71681,0,0,0,.779-.6487l.0617-.6751s1.8118,1.7726,3.2393,1.9029,9.0441.1881,9.0441.1881,1.7558.4724,1.9117-1.2347c.2232-2.4437-6.0039-2.7621-8.3817-4.9854a17.77494,17.77494,0,0,1-3.4836-4.4036Z"/><path class="cls-33" d="M196.544,390.3449s-1.1965,8.5945.908,10.104h4.3426a.71688.71688,0,0,0,.7169-.7169v-.6779s1.9656,1.6004,3.3989,1.6004,10.6065-.0167,10.6065-.0167,1.7914.3107,1.7914-1.4035c0-2.4539-7.8129-2.8232-10.3831-4.821a17.77567,17.77567,0,0,1-3.8696-4.0684Z"/><path class="cls-34" d="M233.8865,291.1167a2.28011,2.28011,0,0,1-.7119,1.655c-15.4265,14.619-41.6731,14.5058-41.6731,14.5058V273.989s23.702,2.1903,41.1081-13.9683a.75987.75987,0,0,1,1.2769.5567Z"/><path class="cls-32" d="M225.7172,279.0648s2.3748-2.7548,2.8498-3.3247.863-3.8947,1.7139-4.7496,3.5373-2.3344,4.2476-2.2544c1.0035.113,2.0735,4.4147,1.7085,7.5008-.3357,2.8379-1.9119,3.7992-4.2747,4.1792-1.2302.1978-3.5622,2.9447-3.7522,3.7047Z"/><path class="cls-9" d="M195.4383,269.3007s.8959-4.9013-.7994-5.438-9.7419-2.9442-10.8252-1.3292-1.2439,5.8538-1.2439,5.8538Z"/><path class="cls-35" d="M201.4866,242.1676c-.14-4.9705-20.8416-6.0854-21.2896,4.8088-.2586,6.2889,1.3915,11.4961,2.8422,11.4773,3.8054-.0496,1.4785-6.69,3.6794-6.9843,2.4478-.3272-.0211,10.8286,6.1945,10.1718,10.425-1.1017,7.7039-8.8818,1.2455-7.6386s-4.8387-5.9497.5432-7.2955S201.5886,245.7903,201.4866,242.1676Z"/><path class="cls-35" d="M177.2322,314.8272a187.34865,187.34865,0,0,0,.7988,34.8169l-5.3422,39.2375a1.13989,1.13989,0,0,0,1.0716,1.2922l9.0671.4611a1.13821,1.13821,0,0,0,1.1531-.826c1.4319-5.0185,8.5468-30.295,9.0592-38.8349.57-9.4992,3.4801-33.9493-1.0796-36.6091Z"/><path class="cls-36" d="M176.8332,314.3649c1.2722,9.9957,15.0667,38.8889,17.1565,42.6886l1.2794,33.812a1.51974,1.51974,0,0,0,1.3812,1.4561l7.5562.687a1.51995,1.51995,0,0,0,1.6548-1.424l2.1873-37.0181c-.4129-.5581-6.842-40.8186-8.1343-40.2016Z"/><path class="cls-9" d="M182.7616,289.5895c2.5698-2.215,5.5171-5.0981,6.4124-7.3298,1.6871-4.2061-.6726-21.5561-7.5614-15.7423-6.889,5.8137-11.3066,22.1852-10.6314,27.5673.675,5.3821,25.7274,14.5734,25.7274,14.5734l1.4632-8.9385S187.8018,292.8224,182.7616,289.5895Z"/><path class="cls-8" d="M226.9647,277.0143s-7.7594,5.5226-13.2431,10.0703c-3.5892-4.9236-12.5278-16.8625-16.9464-19.8735-2.7942-1.6144-12.0947-3.82-15.7044-.4003s-3.521,16.5191-2.0548,26.4282c1.154,7.7994-3.2593,16.8164-1.4039,20.8282.6888,1.4891,22.9732,1.5614,22.8722.2977a98.77824,98.77824,0,0,1,.6671-23.617c4.1513,4.2781,9.2062,8.6885,11.8369,7.9803,4.9395-1.3299,17.6538-16.662,17.6538-16.662Z"/><path class="cls-9" d="M200.2183,299.2008c-3.3893-3.4122-7.7733-7.5348-6.337-16.9808a103.20026,103.20026,0,0,0,7.2653,8.523S200.3703,296.4726,200.2183,299.2008Z"/><rect class="cls-12" x="176.5598" y="313.1173" width="24.7277" height="2.6598" rx="1"/><polygon class="cls-9" points="226.965 277.014 224.685 278.654 228.901 284.121 230.642 282.066 226.965 277.014"/></g><g id="man_pointing" data-name="man pointing"><path class="cls-32" d="M297.4568,244.6834c1.0249,2.2018.5221,3.4008.774,4.329s1.214,2.8015,1.2546,3.6898-.9031,1.0097-1.107,2.171.3311,2.6743-.3767,3.8912-3.456.9359-3.2941,2.1103a49.148,49.148,0,0,0,1.8937,5.5336l-11.2999.1813s.4511-6.3452-.1236-8.968-1.8484-12.2575.4976-13.426S296.3687,242.3459,297.4568,244.6834Z"/><path class="cls-35" d="M291.2528,239.6879c-9.4008.2934-12.6992,2.6619-12.5918,10.0076.064,4.3782,2.4804,10.4385,5.6521,10.4184,2.2875-.0145,6.7966-.2685,7.5868-1.5185,1.8752-2.9662.2698-7.0616,1.5264-8.4752,1.7861-2.0094,5.8456-.9746,5.2875-7.8959S294.3817,239.5902,291.2528,239.6879Z"/><polygon class="cls-32" points="301.465 390.928 301.465 395.103 307.77 395.103 307.771 389.152 301.465 390.928"/><polygon class="cls-32" points="279.727 391.103 279.727 396.037 273.315 396.037 273.315 389.981 279.727 391.103"/><path class="cls-35" d="M275.9793,315.0462s-1.9343,26.2572-2.2896,33.8366c-.3111,6.6369-1.0506,35.4859-1.2296,42.5573a1.53039,1.53039,0,0,0,1.5308,1.569h5.3081a1.52186,1.52186,0,0,0,1.5101-1.2765c.8456-5.1976,3.9331-24.999,3.711-35.7093,1.5395-4.9739,9.6674-33.9899,9.7858-39.9113S278.94,312.0855,275.9793,315.0462Z"/><path class="cls-36" d="M305.8079,315.0462s2.7733,26.6125,3.1285,34.1919c.3122,6.6601.1217,35.1914.0709,42.0135a1.52729,1.52729,0,0,1-1.4844,1.5146l-6.4913.199a1.5258,1.5258,0,0,1-1.571-1.3807c-.4659-4.9316-1.9699-21.7406-2.2219-35.7379-1.5396-4.9739-11.0403-34.2021-11.1587-40.1235S302.8473,312.0855,305.8079,315.0462Z"/><path class="cls-32" d="M274.2382,283.1892s-5.2554,6.5234-4.1895,11.675,7.6535,15.5929,9.2523,17.9023-2.6371,4.7963-2.6371,4.7963-13.4938-17.5273-15.6255-22.8565,7.4265-19.2444,7.4265-19.2444Z"/><path class="cls-32" d="M305.9274,263.5071s5.9465-.4206,9.7089-10.2892,5.4172-23.2996,4.3989-26.3377c-1.6126-4.811.637-9.3386,1.2637-11.2457.4751-1.4458,1.7623-3.4006,2.0079-1.8024a17.57667,17.57667,0,0,1-.6022,5.205c-.4163,1.5961,4.6363,2.0248,3.795,4.4707s-1.5424,2.2483-1.7543,4.0061-.3323,21.9125-1.8841,26.5739-7.1712,16.6971-10.9565,18.7495S305.9274,263.5071,305.9274,263.5071Z"/><path class="cls-5" d="M292.9794,264.981c-2.7533-.0288-14.389-.8882-20.1623,4.4411s-7.8162,9.4149-8.1715,10.4808,7.1057,6.8392,8.6156,5.6845,2.5758-3.2864,4.3522-3.2864.8882,9.6815.1777,14.6554-4.974,19.0076-1.9541,20.3399,10.8361-.4441,15.366.7106,12.0795,2.0428,14.5665-.7994-1.7764-13.5895-1.8652-20.5175.1776-17.7641,4.3522-20.5176,9.2373-3.6416,9.415-6.2174-7.2833-10.7473-9.0597-9.8591-5.0002,4.6187-8.3485,4.7075S294.9343,265.0015,292.9794,264.981Z"/><path class="cls-36" d="M300.5873,394.2996c.8775-.8882,2.4023.533,3.9546.533s2.4165-1.0653,3.2279-1.1248,1.2261,1.8353,2.943,2.7043c1.0194.5159,3.4344.771,3.4344,3.7283,0,.732-13.1308.5467-13.5599.3071C299.7692,399.9907,299.7098,395.1879,300.5873,394.2996Z"/><path class="cls-36" d="M272.5194,394.2996c.8775-.8882,2.4023.533,3.9546.533s2.4165-1.0653,3.2279-1.1248,1.2261,1.8353,2.943,2.7043c1.0194.5159,3.4344.771,3.4344,3.7283,0,.732-13.1308.5467-13.5599.3071C271.7013,399.9907,271.6419,395.1879,272.5194,394.2996Z"/></g></g></svg>